<svg xmlns="http://www.w3.org/2000/svg" width="1440" height="560" preserveAspectRatio="none" xmlns:v="https://vecta.io/nano"><style><![CDATA[.B{stroke-linecap:round}.C{stroke:url(#B)}.D{stroke:url(#C)}.E{stroke-width:6}.F{stroke-width:10}.G{stroke-width:8}]]></style><g mask="url(#A)" fill="none"><path fill="rgba(239, 169, 0, 0.7)" d="M0 0h1440v560H0z"/><g class="B C"><path d="M660 352l412-412" class="G"/><path d="M515 451L785 181" class="E"/><g class="F"><path d="M262 459L656 65"/><path d="M1349 471L939 881"/></g></g><path d="M1019 373L830 562" class="B D E"/><path d="M1186 550l241-241" class="B C F"/><path d="M310 493L482 321" class="B D G"/><g class="F B"><path d="M782 282L593 471" class="C"/><g class="D"><path d="M196 184L21 359"/><path d="M726 386L942 170"/></g></g><g class="E B D"><path d="M813 282L612 483"/><path d="M521 437L319 639"/></g><g class="F B"><path d="M82 312L-267 661" class="D"/><g class="C"><path d="M121 468L404 185"/></g></g><path d="M932 123L567 488" class="B C E"/><path d="M430 389L52 767" class="B C F"/><path d="M1331 315L1115 531" class="B C G"/><g class="D B"><path d="M708 489l322-322" class="F"/><path d="M987 260L697 550" class="E"/><g class="F"><path d="M1202 223L1059 366"/><path d="M1178 95l315-315"/><path d="M777 264l419-419"/></g></g><g class="C B"><path d="M1277 323L1512 88" class="E"/><path d="M1360 90L1080 370" class="F"/></g><g class="E B"><path d="M1214 106L1027 293" class="D"/><g class="C"><path d="M1139 542l339-339"/></g></g><path d="M597 490L807 280" class="B C G"/><g class="E B C"><path d="M947 550L608 889"/><path d="M786 202l231-231"/></g><g class="D B"><path d="M1108 533L707 934" class="F"/><g class="G"><path d="M775 115l302-302"/><path d="M557 475L286 746"/></g></g><path d="M968 410L705 673" class="B C G"/><g class="E B"><path d="M1020 225l341-341" class="D"/><path d="M954 286l305-305" class="C"/></g><g class="D B"><path d="M633 414L1012 35" class="G"/><path d="M804 31l353-353" class="F"/></g><g class="C B"><path d="M611 58L759-90" class="G"/><path d="M1188 392l412-412" class="E"/></g></g><defs><mask id="A"><path fill="#fff" d="M0 0h1440v560H0z"/></mask><linearGradient x1="0%" y1="100%" x2="100%" y2="0%" id="B"><stop stop-color="rgba(239, 169, 0, 0)" offset="0"/><stop stop-color="rgba(239, 169, 0, 0.85)" offset="1"/></linearGradient><linearGradient x1="100%" y1="0%" x2="0%" y2="100%" id="C"><stop stop-color="rgba(239, 169, 0, 0)" offset="0"/><stop stop-color="rgba(239, 169, 0, 0.85)" offset="1"/></linearGradient></defs></svg>