<svg xmlns="http://www.w3.org/2000/svg" version="1.1" xmlns:xlink="http://www.w3.org/1999/xlink" xmlns:svgjs="http://svgjs.com/svgjs" width="1440" height="560" preserveAspectRatio="none" viewBox="0 0 1440 560"><g mask="url(&quot;#SvgjsMask1023&quot;)" fill="none"><rect width="1440" height="560" x="0" y="0" fill="rgba(239, 169, 0, 0.7)"></rect><path d="M660 352L1072 -60" stroke-width="8" stroke="url(#SvgjsLinearGradient1024)" stroke-linecap="round" class="TopRight"></path><path d="M515 451L785 181" stroke-width="6" stroke="url(#SvgjsLinearGradient1024)" stroke-linecap="round" class="TopRight"></path><path d="M262 459L656 65" stroke-width="10" stroke="url(#SvgjsLinearGradient1024)" stroke-linecap="round" class="TopRight"></path><path d="M1349 471L939 881" stroke-width="10" stroke="url(#SvgjsLinearGradient1024)" stroke-linecap="round" class="TopRight"></path><path d="M1019 373L830 562" stroke-width="6" stroke="url(#SvgjsLinearGradient1025)" stroke-linecap="round" class="BottomLeft"></path><path d="M1186 550L1427 309" stroke-width="10" stroke="url(#SvgjsLinearGradient1024)" stroke-linecap="round" class="TopRight"></path><path d="M310 493L482 321" stroke-width="8" stroke="url(#SvgjsLinearGradient1025)" stroke-linecap="round" class="BottomLeft"></path><path d="M782 282L593 471" stroke-width="10" stroke="url(#SvgjsLinearGradient1024)" stroke-linecap="round" class="TopRight"></path><path d="M196 184L21 359" stroke-width="10" stroke="url(#SvgjsLinearGradient1025)" stroke-linecap="round" class="BottomLeft"></path><path d="M726 386L942 170" stroke-width="10" stroke="url(#SvgjsLinearGradient1025)" stroke-linecap="round" class="BottomLeft"></path><path d="M813 282L612 483" stroke-width="6" stroke="url(#SvgjsLinearGradient1025)" stroke-linecap="round" class="BottomLeft"></path><path d="M521 437L319 639" stroke-width="6" stroke="url(#SvgjsLinearGradient1025)" stroke-linecap="round" class="BottomLeft"></path><path d="M82 312L-267 661" stroke-width="10" stroke="url(#SvgjsLinearGradient1025)" stroke-linecap="round" class="BottomLeft"></path><path d="M121 468L404 185" stroke-width="10" stroke="url(#SvgjsLinearGradient1024)" stroke-linecap="round" class="TopRight"></path><path d="M932 123L567 488" stroke-width="6" stroke="url(#SvgjsLinearGradient1024)" stroke-linecap="round" class="TopRight"></path><path d="M430 389L52 767" stroke-width="10" stroke="url(#SvgjsLinearGradient1024)" stroke-linecap="round" class="TopRight"></path><path d="M1331 315L1115 531" stroke-width="8" stroke="url(#SvgjsLinearGradient1024)" stroke-linecap="round" class="TopRight"></path><path d="M708 489L1030 167" stroke-width="10" stroke="url(#SvgjsLinearGradient1025)" stroke-linecap="round" class="BottomLeft"></path><path d="M987 260L697 550" stroke-width="6" stroke="url(#SvgjsLinearGradient1025)" stroke-linecap="round" class="BottomLeft"></path><path d="M1202 223L1059 366" stroke-width="10" stroke="url(#SvgjsLinearGradient1025)" stroke-linecap="round" class="BottomLeft"></path><path d="M1178 95L1493 -220" stroke-width="10" stroke="url(#SvgjsLinearGradient1025)" stroke-linecap="round" class="BottomLeft"></path><path d="M777 264L1196 -155" stroke-width="10" stroke="url(#SvgjsLinearGradient1025)" stroke-linecap="round" class="BottomLeft"></path><path d="M1277 323L1512 88" stroke-width="6" stroke="url(#SvgjsLinearGradient1024)" stroke-linecap="round" class="TopRight"></path><path d="M1360 90L1080 370" stroke-width="10" stroke="url(#SvgjsLinearGradient1024)" stroke-linecap="round" class="TopRight"></path><path d="M1214 106L1027 293" stroke-width="6" stroke="url(#SvgjsLinearGradient1025)" stroke-linecap="round" class="BottomLeft"></path><path d="M1139 542L1478 203" stroke-width="6" stroke="url(#SvgjsLinearGradient1024)" stroke-linecap="round" class="TopRight"></path><path d="M597 490L807 280" stroke-width="8" stroke="url(#SvgjsLinearGradient1024)" stroke-linecap="round" class="TopRight"></path><path d="M947 550L608 889" stroke-width="6" stroke="url(#SvgjsLinearGradient1024)" stroke-linecap="round" class="TopRight"></path><path d="M786 202L1017 -29" stroke-width="6" stroke="url(#SvgjsLinearGradient1024)" stroke-linecap="round" class="TopRight"></path><path d="M1108 533L707 934" stroke-width="10" stroke="url(#SvgjsLinearGradient1025)" stroke-linecap="round" class="BottomLeft"></path><path d="M775 115L1077 -187" stroke-width="8" stroke="url(#SvgjsLinearGradient1025)" stroke-linecap="round" class="BottomLeft"></path><path d="M557 475L286 746" stroke-width="8" stroke="url(#SvgjsLinearGradient1025)" stroke-linecap="round" class="BottomLeft"></path><path d="M968 410L705 673" stroke-width="8" stroke="url(#SvgjsLinearGradient1024)" stroke-linecap="round" class="TopRight"></path><path d="M1020 225L1361 -116" stroke-width="6" stroke="url(#SvgjsLinearGradient1025)" stroke-linecap="round" class="BottomLeft"></path><path d="M954 286L1259 -19" stroke-width="6" stroke="url(#SvgjsLinearGradient1024)" stroke-linecap="round" class="TopRight"></path><path d="M633 414L1012 35" stroke-width="8" stroke="url(#SvgjsLinearGradient1025)" stroke-linecap="round" class="BottomLeft"></path><path d="M804 31L1157 -322" stroke-width="10" stroke="url(#SvgjsLinearGradient1025)" stroke-linecap="round" class="BottomLeft"></path><path d="M611 58L759 -90" stroke-width="8" stroke="url(#SvgjsLinearGradient1024)" stroke-linecap="round" class="TopRight"></path><path d="M1188 392L1600 -20" stroke-width="6" stroke="url(#SvgjsLinearGradient1024)" stroke-linecap="round" class="TopRight"></path></g><defs><mask id="SvgjsMask1023"><rect width="1440" height="560" fill="#ffffff"></rect></mask><linearGradient x1="0%" y1="100%" x2="100%" y2="0%" id="SvgjsLinearGradient1024"><stop stop-color="rgba(239, 169, 0, 0)" offset="0"></stop><stop stop-color="rgba(239, 169, 0, 0.85)" offset="1"></stop></linearGradient><linearGradient x1="100%" y1="0%" x2="0%" y2="100%" id="SvgjsLinearGradient1025"><stop stop-color="rgba(239, 169, 0, 0)" offset="0"></stop><stop stop-color="rgba(239, 169, 0, 0.85)" offset="1"></stop></linearGradient></defs></svg>