<svg xmlns="http://www.w3.org/2000/svg" version="1.1" xmlns:xlink="http://www.w3.org/1999/xlink" xmlns:svgjs="http://svgjs.com/svgjs" width="1440" height="560" preserveAspectRatio="none" viewBox="0 0 1440 560"><g mask="url(&quot;#SvgjsMask1000&quot;)" fill="none"><rect width="1440" height="560" x="0" y="0" fill="rgba(239, 169, 0, 1)"></rect><path d="M969 77L1152 -106" stroke-width="6" stroke="url(#SvgjsLinearGradient1001)" stroke-linecap="round" class="TopRight"></path><path d="M118 214L-246 578" stroke-width="10" stroke="url(#SvgjsLinearGradient1001)" stroke-linecap="round" class="TopRight"></path><path d="M1234 392L1094 532" stroke-width="10" stroke="url(#SvgjsLinearGradient1002)" stroke-linecap="round" class="BottomLeft"></path><path d="M1223 159L1378 4" stroke-width="8" stroke="url(#SvgjsLinearGradient1002)" stroke-linecap="round" class="BottomLeft"></path><path d="M1240 332L1565 7" stroke-width="8" stroke="url(#SvgjsLinearGradient1001)" stroke-linecap="round" class="TopRight"></path><path d="M467 185L105 547" stroke-width="6" stroke="url(#SvgjsLinearGradient1001)" stroke-linecap="round" class="TopRight"></path><path d="M372 352L94 630" stroke-width="8" stroke="url(#SvgjsLinearGradient1002)" stroke-linecap="round" class="BottomLeft"></path><path d="M1285 148L964 469" stroke-width="8" stroke="url(#SvgjsLinearGradient1001)" stroke-linecap="round" class="TopRight"></path><path d="M1278 201L965 514" stroke-width="10" stroke="url(#SvgjsLinearGradient1002)" stroke-linecap="round" class="BottomLeft"></path><path d="M58 242L316 -16" stroke-width="6" stroke="url(#SvgjsLinearGradient1002)" stroke-linecap="round" class="BottomLeft"></path><path d="M586 336L949 -27" stroke-width="10" stroke="url(#SvgjsLinearGradient1002)" stroke-linecap="round" class="BottomLeft"></path><path d="M1381 481L1104 758" stroke-width="8" stroke="url(#SvgjsLinearGradient1002)" stroke-linecap="round" class="BottomLeft"></path><path d="M450 168L78 540" stroke-width="6" stroke="url(#SvgjsLinearGradient1002)" stroke-linecap="round" class="BottomLeft"></path><path d="M575 23L186 412" stroke-width="10" stroke="url(#SvgjsLinearGradient1002)" stroke-linecap="round" class="BottomLeft"></path><path d="M170 63L519 -286" stroke-width="8" stroke="url(#SvgjsLinearGradient1002)" stroke-linecap="round" class="BottomLeft"></path><path d="M541 428L903 66" stroke-width="6" stroke="url(#SvgjsLinearGradient1002)" stroke-linecap="round" class="BottomLeft"></path><path d="M24 142L-377 543" stroke-width="8" stroke="url(#SvgjsLinearGradient1002)" stroke-linecap="round" class="BottomLeft"></path><path d="M139 189L-90 418" stroke-width="8" stroke="url(#SvgjsLinearGradient1001)" stroke-linecap="round" class="TopRight"></path><path d="M1164 66L1432 -202" stroke-width="6" stroke="url(#SvgjsLinearGradient1001)" stroke-linecap="round" class="TopRight"></path><path d="M846 271L1065 52" stroke-width="8" stroke="url(#SvgjsLinearGradient1001)" stroke-linecap="round" class="TopRight"></path><path d="M421 497L101 817" stroke-width="8" stroke="url(#SvgjsLinearGradient1002)" stroke-linecap="round" class="BottomLeft"></path><path d="M399 476L5 870" stroke-width="8" stroke="url(#SvgjsLinearGradient1001)" stroke-linecap="round" class="TopRight"></path><path d="M394 47L789 -348" stroke-width="6" stroke="url(#SvgjsLinearGradient1002)" stroke-linecap="round" class="BottomLeft"></path><path d="M401 354L37 718" stroke-width="10" stroke="url(#SvgjsLinearGradient1001)" stroke-linecap="round" class="TopRight"></path><path d="M1010 399L1252 157" stroke-width="10" stroke="url(#SvgjsLinearGradient1002)" stroke-linecap="round" class="BottomLeft"></path><path d="M944 172L777 339" stroke-width="8" stroke="url(#SvgjsLinearGradient1002)" stroke-linecap="round" class="BottomLeft"></path><path d="M192 273L-217 682" stroke-width="6" stroke="url(#SvgjsLinearGradient1001)" stroke-linecap="round" class="TopRight"></path><path d="M549 451L942 58" stroke-width="6" stroke="url(#SvgjsLinearGradient1001)" stroke-linecap="round" class="TopRight"></path><path d="M1274 32L1647 -341" stroke-width="10" stroke="url(#SvgjsLinearGradient1001)" stroke-linecap="round" class="TopRight"></path><path d="M1293 114L901 506" stroke-width="10" stroke="url(#SvgjsLinearGradient1002)" stroke-linecap="round" class="BottomLeft"></path><path d="M153 399L402 150" stroke-width="10" stroke="url(#SvgjsLinearGradient1001)" stroke-linecap="round" class="TopRight"></path><path d="M889 524L689 724" stroke-width="8" stroke="url(#SvgjsLinearGradient1002)" stroke-linecap="round" class="BottomLeft"></path><path d="M1355 139L1675 -181" stroke-width="6" stroke="url(#SvgjsLinearGradient1002)" stroke-linecap="round" class="BottomLeft"></path><path d="M1375 58L1223 210" stroke-width="10" stroke="url(#SvgjsLinearGradient1001)" stroke-linecap="round" class="TopRight"></path><path d="M265 47L-112 424" stroke-width="10" stroke="url(#SvgjsLinearGradient1002)" stroke-linecap="round" class="BottomLeft"></path><path d="M626 382L923 85" stroke-width="8" stroke="url(#SvgjsLinearGradient1002)" stroke-linecap="round" class="BottomLeft"></path><path d="M754 52L916 -110" stroke-width="10" stroke="url(#SvgjsLinearGradient1002)" stroke-linecap="round" class="BottomLeft"></path><path d="M1410 358L1759 9" stroke-width="10" stroke="url(#SvgjsLinearGradient1002)" stroke-linecap="round" class="BottomLeft"></path><path d="M1193 335L999 529" stroke-width="6" stroke="url(#SvgjsLinearGradient1002)" stroke-linecap="round" class="BottomLeft"></path></g><defs><mask id="SvgjsMask1000"><rect width="1440" height="560" fill="#ffffff"></rect></mask><linearGradient x1="0%" y1="100%" x2="100%" y2="0%" id="SvgjsLinearGradient1001"><stop stop-color="rgba(28, 83, 142, 0)" offset="0"></stop><stop stop-color="#1c538e" offset="1"></stop></linearGradient><linearGradient x1="100%" y1="0%" x2="0%" y2="100%" id="SvgjsLinearGradient1002"><stop stop-color="rgba(28, 83, 142, 0)" offset="0"></stop><stop stop-color="#1c538e" offset="1"></stop></linearGradient></defs></svg>