<svg xmlns="http://www.w3.org/2000/svg" version="1.1" xmlns:xlink="http://www.w3.org/1999/xlink" xmlns:svgjs="http://svgjs.com/svgjs" width="1440" height="560" preserveAspectRatio="none" viewBox="0 0 1440 560"><g mask="url(&quot;#SvgjsMask1002&quot;)" fill="none"><rect width="1440" height="560" x="0" y="0" fill="rgba(239, 169, 0, 0.7)"></rect><path d="M-95.55 384.17L-95.55 384.17" stroke="rgba(0, 0, 0, 1)" stroke-width="1.5"></path><path d="M-95.55 384.17L-61.81 489.38" stroke="rgba(0, 0, 0, 1)" stroke-width="1.5"></path><path d="M-95.55 384.17L95.04 395.06" stroke="rgba(0, 0, 0, 1)" stroke-width="1.5"></path><path d="M-95.55 384.17L74.3 489.19" stroke="rgba(0, 0, 0, 1)" stroke-width="1.5"></path><path d="M-95.55 384.17L-44.92 682.28" stroke="rgba(0, 0, 0, 1)" stroke-width="1.5"></path><path d="M-61.81 489.38L-61.81 489.38" stroke="rgba(0, 0, 0, 1)" stroke-width="1.5"></path><path d="M-61.81 489.38L74.3 489.19" stroke="rgba(0, 0, 0, 1)" stroke-width="1.5"></path><path d="M-61.81 489.38L95.04 395.06" stroke="rgba(0, 0, 0, 1)" stroke-width="1.5"></path><path d="M-44.92 682.28L-44.92 682.28" stroke="rgba(0, 0, 0, 1)" stroke-width="1.5"></path><path d="M-44.92 682.28L101.22 649.81" stroke="rgba(0, 0, 0, 1)" stroke-width="1.5"></path><path d="M-44.92 682.28L-61.81 489.38" stroke="rgba(0, 0, 0, 1)" stroke-width="1.5"></path><path d="M-44.92 682.28L74.3 489.19" stroke="rgba(0, 0, 0, 1)" stroke-width="1.5"></path><path d="M-44.92 682.28L95.04 395.06" stroke="rgba(0, 0, 0, 1)" stroke-width="1.5"></path><path d="M95.04 395.06L95.04 395.06" stroke="rgba(0, 0, 0, 1)" stroke-width="1.5"></path><path d="M95.04 395.06L74.3 489.19" stroke="rgba(0, 0, 0, 1)" stroke-width="1.5"></path><path d="M95.04 395.06L260.64 362.56" stroke="rgba(0, 0, 0, 1)" stroke-width="1.5"></path><path d="M95.04 395.06L254.75 557.61" stroke="rgba(0, 0, 0, 1)" stroke-width="1.5"></path><path d="M95.04 395.06L101.22 649.81" stroke="rgba(0, 0, 0, 1)" stroke-width="1.5"></path><path d="M74.3 489.19L74.3 489.19" stroke="rgba(0, 0, 0, 1)" stroke-width="1.5"></path><path d="M101.22 649.81L101.22 649.81" stroke="rgba(0, 0, 0, 1)" stroke-width="1.5"></path><path d="M101.22 649.81L74.3 489.19" stroke="rgba(0, 0, 0, 1)" stroke-width="1.5"></path><path d="M101.22 649.81L254.75 557.61" stroke="rgba(0, 0, 0, 1)" stroke-width="1.5"></path><path d="M101.22 649.81L-61.81 489.38" stroke="rgba(0, 0, 0, 1)" stroke-width="1.5"></path><path d="M260.64 362.56L260.64 362.56" stroke="rgba(0, 0, 0, 1)" stroke-width="1.5"></path><path d="M260.64 362.56L403.76 411.11" stroke="rgba(0, 0, 0, 1)" stroke-width="1.5"></path><path d="M254.75 557.61L254.75 557.61" stroke="rgba(0, 0, 0, 1)" stroke-width="1.5"></path><path d="M254.75 557.61L348.6 495.85" stroke="rgba(0, 0, 0, 1)" stroke-width="1.5"></path><path d="M254.75 557.61L74.3 489.19" stroke="rgba(0, 0, 0, 1)" stroke-width="1.5"></path><path d="M403.76 411.11L403.76 411.11" stroke="rgba(0, 0, 0, 1)" stroke-width="1.5"></path><path d="M403.76 411.11L348.6 495.85" stroke="rgba(0, 0, 0, 1)" stroke-width="1.5"></path><path d="M403.76 411.11L522.91 398.19" stroke="rgba(0, 0, 0, 1)" stroke-width="1.5"></path><path d="M403.76 411.11L492.78 553.8" stroke="rgba(0, 0, 0, 1)" stroke-width="1.5"></path><path d="M403.76 411.11L254.75 557.61" stroke="rgba(0, 0, 0, 1)" stroke-width="1.5"></path><path d="M403.76 411.11L643.16 551.63" stroke="rgba(0, 0, 0, 1)" stroke-width="1.5"></path><path d="M348.6 495.85L348.6 495.85" stroke="rgba(0, 0, 0, 1)" stroke-width="1.5"></path><path d="M396 691.63L396 691.63" stroke="rgba(0, 0, 0, 1)" stroke-width="1.5"></path><path d="M396 691.63L498.52 709.32" stroke="rgba(0, 0, 0, 1)" stroke-width="1.5"></path><path d="M396 691.63L492.78 553.8" stroke="rgba(0, 0, 0, 1)" stroke-width="1.5"></path><path d="M396 691.63L254.75 557.61" stroke="rgba(0, 0, 0, 1)" stroke-width="1.5"></path><path d="M396 691.63L348.6 495.85" stroke="rgba(0, 0, 0, 1)" stroke-width="1.5"></path><path d="M522.91 398.19L522.91 398.19" stroke="rgba(0, 0, 0, 1)" stroke-width="1.5"></path><path d="M522.91 398.19L492.78 553.8" stroke="rgba(0, 0, 0, 1)" stroke-width="1.5"></path><path d="M522.91 398.19L680.72 354.9" stroke="rgba(0, 0, 0, 1)" stroke-width="1.5"></path><path d="M492.78 553.8L492.78 553.8" stroke="rgba(0, 0, 0, 1)" stroke-width="1.5"></path><path d="M492.78 553.8L643.16 551.63" stroke="rgba(0, 0, 0, 1)" stroke-width="1.5"></path><path d="M498.52 709.32L498.52 709.32" stroke="rgba(0, 0, 0, 1)" stroke-width="1.5"></path><path d="M498.52 709.32L492.78 553.8" stroke="rgba(0, 0, 0, 1)" stroke-width="1.5"></path><path d="M498.52 709.32L684.21 645.9" stroke="rgba(0, 0, 0, 1)" stroke-width="1.5"></path><path d="M498.52 709.32L643.16 551.63" stroke="rgba(0, 0, 0, 1)" stroke-width="1.5"></path><path d="M672.67 234.09L672.67 234.09" stroke="rgba(0, 0, 0, 1)" stroke-width="1.5"></path><path d="M672.67 234.09L680.72 354.9" stroke="rgba(0, 0, 0, 1)" stroke-width="1.5"></path><path d="M672.67 234.09L813.57 223.88" stroke="rgba(0, 0, 0, 1)" stroke-width="1.5"></path><path d="M672.67 234.09L854.64 344.49" stroke="rgba(0, 0, 0, 1)" stroke-width="1.5"></path><path d="M672.67 234.09L522.91 398.19" stroke="rgba(0, 0, 0, 1)" stroke-width="1.5"></path><path d="M680.72 354.9L680.72 354.9" stroke="rgba(0, 0, 0, 1)" stroke-width="1.5"></path><path d="M680.72 354.9L854.64 344.49" stroke="rgba(0, 0, 0, 1)" stroke-width="1.5"></path><path d="M680.72 354.9L813.57 223.88" stroke="rgba(0, 0, 0, 1)" stroke-width="1.5"></path><path d="M680.72 354.9L643.16 551.63" stroke="rgba(0, 0, 0, 1)" stroke-width="1.5"></path><path d="M643.16 551.63L643.16 551.63" stroke="rgba(0, 0, 0, 1)" stroke-width="1.5"></path><path d="M643.16 551.63L684.21 645.9" stroke="rgba(0, 0, 0, 1)" stroke-width="1.5"></path><path d="M643.16 551.63L801.53 649.9" stroke="rgba(0, 0, 0, 1)" stroke-width="1.5"></path><path d="M643.16 551.63L835.67 542.12" stroke="rgba(0, 0, 0, 1)" stroke-width="1.5"></path><path d="M643.16 551.63L522.91 398.19" stroke="rgba(0, 0, 0, 1)" stroke-width="1.5"></path><path d="M684.21 645.9L684.21 645.9" stroke="rgba(0, 0, 0, 1)" stroke-width="1.5"></path><path d="M684.21 645.9L801.53 649.9" stroke="rgba(0, 0, 0, 1)" stroke-width="1.5"></path><path d="M684.21 645.9L835.67 542.12" stroke="rgba(0, 0, 0, 1)" stroke-width="1.5"></path><path d="M837.71 84.58L837.71 84.58" stroke="rgba(0, 0, 0, 1)" stroke-width="1.5"></path><path d="M837.71 84.58L943.9 74.98" stroke="rgba(0, 0, 0, 1)" stroke-width="1.5"></path><path d="M837.71 84.58L813.57 223.88" stroke="rgba(0, 0, 0, 1)" stroke-width="1.5"></path><path d="M837.71 84.58L960.83 234.76" stroke="rgba(0, 0, 0, 1)" stroke-width="1.5"></path><path d="M837.71 84.58L961.13 -76.55" stroke="rgba(0, 0, 0, 1)" stroke-width="1.5"></path><path d="M837.71 84.58L672.67 234.09" stroke="rgba(0, 0, 0, 1)" stroke-width="1.5"></path><path d="M837.71 84.58L854.64 344.49" stroke="rgba(0, 0, 0, 1)" stroke-width="1.5"></path><path d="M813.57 223.88L813.57 223.88" stroke="rgba(0, 0, 0, 1)" stroke-width="1.5"></path><path d="M813.57 223.88L854.64 344.49" stroke="rgba(0, 0, 0, 1)" stroke-width="1.5"></path><path d="M813.57 223.88L960.83 234.76" stroke="rgba(0, 0, 0, 1)" stroke-width="1.5"></path><path d="M854.64 344.49L854.64 344.49" stroke="rgba(0, 0, 0, 1)" stroke-width="1.5"></path><path d="M854.64 344.49L965.97 354.43" stroke="rgba(0, 0, 0, 1)" stroke-width="1.5"></path><path d="M854.64 344.49L960.83 234.76" stroke="rgba(0, 0, 0, 1)" stroke-width="1.5"></path><path d="M854.64 344.49L835.67 542.12" stroke="rgba(0, 0, 0, 1)" stroke-width="1.5"></path><path d="M835.67 542.12L835.67 542.12" stroke="rgba(0, 0, 0, 1)" stroke-width="1.5"></path><path d="M835.67 542.12L801.53 649.9" stroke="rgba(0, 0, 0, 1)" stroke-width="1.5"></path><path d="M835.67 542.12L1004.29 556.59" stroke="rgba(0, 0, 0, 1)" stroke-width="1.5"></path><path d="M835.67 542.12L943.33 675.19" stroke="rgba(0, 0, 0, 1)" stroke-width="1.5"></path><path d="M801.53 649.9L801.53 649.9" stroke="rgba(0, 0, 0, 1)" stroke-width="1.5"></path><path d="M801.53 649.9L943.33 675.19" stroke="rgba(0, 0, 0, 1)" stroke-width="1.5"></path><path d="M961.13 -76.55L961.13 -76.55" stroke="rgba(0, 0, 0, 1)" stroke-width="1.5"></path><path d="M961.13 -76.55L943.9 74.98" stroke="rgba(0, 0, 0, 1)" stroke-width="1.5"></path><path d="M961.13 -76.55L1153.71 -84.9" stroke="rgba(0, 0, 0, 1)" stroke-width="1.5"></path><path d="M961.13 -76.55L1114.68 107.8" stroke="rgba(0, 0, 0, 1)" stroke-width="1.5"></path><path d="M943.9 74.98L943.9 74.98" stroke="rgba(0, 0, 0, 1)" stroke-width="1.5"></path><path d="M943.9 74.98L960.83 234.76" stroke="rgba(0, 0, 0, 1)" stroke-width="1.5"></path><path d="M960.83 234.76L960.83 234.76" stroke="rgba(0, 0, 0, 1)" stroke-width="1.5"></path><path d="M960.83 234.76L965.97 354.43" stroke="rgba(0, 0, 0, 1)" stroke-width="1.5"></path><path d="M965.97 354.43L965.97 354.43" stroke="rgba(0, 0, 0, 1)" stroke-width="1.5"></path><path d="M1004.29 556.59L1004.29 556.59" stroke="rgba(0, 0, 0, 1)" stroke-width="1.5"></path><path d="M1004.29 556.59L943.33 675.19" stroke="rgba(0, 0, 0, 1)" stroke-width="1.5"></path><path d="M1004.29 556.59L1154.87 655.62" stroke="rgba(0, 0, 0, 1)" stroke-width="1.5"></path><path d="M1004.29 556.59L965.97 354.43" stroke="rgba(0, 0, 0, 1)" stroke-width="1.5"></path><path d="M1004.29 556.59L1130.42 385.96" stroke="rgba(0, 0, 0, 1)" stroke-width="1.5"></path><path d="M1004.29 556.59L801.53 649.9" stroke="rgba(0, 0, 0, 1)" stroke-width="1.5"></path><path d="M943.33 675.19L943.33 675.19" stroke="rgba(0, 0, 0, 1)" stroke-width="1.5"></path><path d="M943.33 675.19L1154.87 655.62" stroke="rgba(0, 0, 0, 1)" stroke-width="1.5"></path><path d="M943.33 675.19L684.21 645.9" stroke="rgba(0, 0, 0, 1)" stroke-width="1.5"></path><path d="M943.33 675.19L1262.69 694.55" stroke="rgba(0, 0, 0, 1)" stroke-width="1.5"></path><path d="M1153.71 -84.9L1153.71 -84.9" stroke="rgba(0, 0, 0, 1)" stroke-width="1.5"></path><path d="M1153.71 -84.9L1297.6 -80.55" stroke="rgba(0, 0, 0, 1)" stroke-width="1.5"></path><path d="M1153.71 -84.9L1267.05 57.81" stroke="rgba(0, 0, 0, 1)" stroke-width="1.5"></path><path d="M1114.68 107.8L1114.68 107.8" stroke="rgba(0, 0, 0, 1)" stroke-width="1.5"></path><path d="M1114.68 107.8L1097.88 258.74" stroke="rgba(0, 0, 0, 1)" stroke-width="1.5"></path><path d="M1114.68 107.8L1267.05 57.81" stroke="rgba(0, 0, 0, 1)" stroke-width="1.5"></path><path d="M1114.68 107.8L943.9 74.98" stroke="rgba(0, 0, 0, 1)" stroke-width="1.5"></path><path d="M1114.68 107.8L1246.77 226.24" stroke="rgba(0, 0, 0, 1)" stroke-width="1.5"></path><path d="M1097.88 258.74L1097.88 258.74" stroke="rgba(0, 0, 0, 1)" stroke-width="1.5"></path><path d="M1097.88 258.74L1130.42 385.96" stroke="rgba(0, 0, 0, 1)" stroke-width="1.5"></path><path d="M1097.88 258.74L960.83 234.76" stroke="rgba(0, 0, 0, 1)" stroke-width="1.5"></path><path d="M1097.88 258.74L1246.77 226.24" stroke="rgba(0, 0, 0, 1)" stroke-width="1.5"></path><path d="M1097.88 258.74L965.97 354.43" stroke="rgba(0, 0, 0, 1)" stroke-width="1.5"></path><path d="M1097.88 258.74L1299.49 371" stroke="rgba(0, 0, 0, 1)" stroke-width="1.5"></path><path d="M1130.42 385.96L1130.42 385.96" stroke="rgba(0, 0, 0, 1)" stroke-width="1.5"></path><path d="M1130.42 385.96L965.97 354.43" stroke="rgba(0, 0, 0, 1)" stroke-width="1.5"></path><path d="M1154.87 655.62L1154.87 655.62" stroke="rgba(0, 0, 0, 1)" stroke-width="1.5"></path><path d="M1154.87 655.62L1262.69 694.55" stroke="rgba(0, 0, 0, 1)" stroke-width="1.5"></path><path d="M1297.6 -80.55L1297.6 -80.55" stroke="rgba(0, 0, 0, 1)" stroke-width="1.5"></path><path d="M1297.6 -80.55L1267.05 57.81" stroke="rgba(0, 0, 0, 1)" stroke-width="1.5"></path><path d="M1297.6 -80.55L1454.08 -103.68" stroke="rgba(0, 0, 0, 1)" stroke-width="1.5"></path><path d="M1297.6 -80.55L1407.41 48.8" stroke="rgba(0, 0, 0, 1)" stroke-width="1.5"></path><path d="M1267.05 57.81L1267.05 57.81" stroke="rgba(0, 0, 0, 1)" stroke-width="1.5"></path><path d="M1267.05 57.81L1407.41 48.8" stroke="rgba(0, 0, 0, 1)" stroke-width="1.5"></path><path d="M1267.05 57.81L1246.77 226.24" stroke="rgba(0, 0, 0, 1)" stroke-width="1.5"></path><path d="M1246.77 226.24L1246.77 226.24" stroke="rgba(0, 0, 0, 1)" stroke-width="1.5"></path><path d="M1246.77 226.24L1299.49 371" stroke="rgba(0, 0, 0, 1)" stroke-width="1.5"></path><path d="M1299.49 371L1299.49 371" stroke="rgba(0, 0, 0, 1)" stroke-width="1.5"></path><path d="M1299.49 371L1254.13 516.56" stroke="rgba(0, 0, 0, 1)" stroke-width="1.5"></path><path d="M1254.13 516.56L1254.13 516.56" stroke="rgba(0, 0, 0, 1)" stroke-width="1.5"></path><path d="M1254.13 516.56L1154.87 655.62" stroke="rgba(0, 0, 0, 1)" stroke-width="1.5"></path><path d="M1254.13 516.56L1262.69 694.55" stroke="rgba(0, 0, 0, 1)" stroke-width="1.5"></path><path d="M1262.69 694.55L1262.69 694.55" stroke="rgba(0, 0, 0, 1)" stroke-width="1.5"></path><path d="M1262.69 694.55L1388.77 695.88" stroke="rgba(0, 0, 0, 1)" stroke-width="1.5"></path><path d="M1454.08 -103.68L1454.08 -103.68" stroke="rgba(0, 0, 0, 1)" stroke-width="1.5"></path><path d="M1454.08 -103.68L1578.67 -66.07" stroke="rgba(0, 0, 0, 1)" stroke-width="1.5"></path><path d="M1454.08 -103.68L1407.41 48.8" stroke="rgba(0, 0, 0, 1)" stroke-width="1.5"></path><path d="M1454.08 -103.68L1595.8 44.37" stroke="rgba(0, 0, 0, 1)" stroke-width="1.5"></path><path d="M1454.08 -103.68L1267.05 57.81" stroke="rgba(0, 0, 0, 1)" stroke-width="1.5"></path><path d="M1454.08 -103.68L1153.71 -84.9" stroke="rgba(0, 0, 0, 1)" stroke-width="1.5"></path><path d="M1407.41 48.8L1407.41 48.8" stroke="rgba(0, 0, 0, 1)" stroke-width="1.5"></path><path d="M1407.41 48.8L1595.8 44.37" stroke="rgba(0, 0, 0, 1)" stroke-width="1.5"></path><path d="M1407.41 48.8L1439.53 235.71" stroke="rgba(0, 0, 0, 1)" stroke-width="1.5"></path><path d="M1439.53 235.71L1439.53 235.71" stroke="rgba(0, 0, 0, 1)" stroke-width="1.5"></path><path d="M1439.53 235.71L1455.91 372.09" stroke="rgba(0, 0, 0, 1)" stroke-width="1.5"></path><path d="M1439.53 235.71L1588.51 231.79" stroke="rgba(0, 0, 0, 1)" stroke-width="1.5"></path><path d="M1439.53 235.71L1586.43 349.87" stroke="rgba(0, 0, 0, 1)" stroke-width="1.5"></path><path d="M1455.91 372.09L1455.91 372.09" stroke="rgba(0, 0, 0, 1)" stroke-width="1.5"></path><path d="M1455.91 372.09L1586.43 349.87" stroke="rgba(0, 0, 0, 1)" stroke-width="1.5"></path><path d="M1434.19 543.84L1434.19 543.84" stroke="rgba(0, 0, 0, 1)" stroke-width="1.5"></path><path d="M1434.19 543.84L1567.87 488.85" stroke="rgba(0, 0, 0, 1)" stroke-width="1.5"></path><path d="M1434.19 543.84L1388.77 695.88" stroke="rgba(0, 0, 0, 1)" stroke-width="1.5"></path><path d="M1434.19 543.84L1455.91 372.09" stroke="rgba(0, 0, 0, 1)" stroke-width="1.5"></path><path d="M1434.19 543.84L1542.38 689.41" stroke="rgba(0, 0, 0, 1)" stroke-width="1.5"></path><path d="M1388.77 695.88L1388.77 695.88" stroke="rgba(0, 0, 0, 1)" stroke-width="1.5"></path><path d="M1388.77 695.88L1542.38 689.41" stroke="rgba(0, 0, 0, 1)" stroke-width="1.5"></path><path d="M1578.67 -66.07L1578.67 -66.07" stroke="rgba(0, 0, 0, 1)" stroke-width="1.5"></path><path d="M1578.67 -66.07L1595.8 44.37" stroke="rgba(0, 0, 0, 1)" stroke-width="1.5"></path><path d="M1578.67 -66.07L1407.41 48.8" stroke="rgba(0, 0, 0, 1)" stroke-width="1.5"></path><path d="M1595.8 44.37L1595.8 44.37" stroke="rgba(0, 0, 0, 1)" stroke-width="1.5"></path><path d="M1595.8 44.37L1588.51 231.79" stroke="rgba(0, 0, 0, 1)" stroke-width="1.5"></path><path d="M1588.51 231.79L1588.51 231.79" stroke="rgba(0, 0, 0, 1)" stroke-width="1.5"></path><path d="M1588.51 231.79L1586.43 349.87" stroke="rgba(0, 0, 0, 1)" stroke-width="1.5"></path><path d="M1588.51 231.79L1455.91 372.09" stroke="rgba(0, 0, 0, 1)" stroke-width="1.5"></path><path d="M1586.43 349.87L1586.43 349.87" stroke="rgba(0, 0, 0, 1)" stroke-width="1.5"></path><path d="M1586.43 349.87L1567.87 488.85" stroke="rgba(0, 0, 0, 1)" stroke-width="1.5"></path><path d="M1567.87 488.85L1567.87 488.85" stroke="rgba(0, 0, 0, 1)" stroke-width="1.5"></path><path d="M1567.87 488.85L1455.91 372.09" stroke="rgba(0, 0, 0, 1)" stroke-width="1.5"></path><path d="M1567.87 488.85L1542.38 689.41" stroke="rgba(0, 0, 0, 1)" stroke-width="1.5"></path><path d="M1542.38 689.41L1542.38 689.41" stroke="rgba(0, 0, 0, 1)" stroke-width="1.5"></path><path d="M1542.38 689.41L1262.69 694.55" stroke="rgba(0, 0, 0, 1)" stroke-width="1.5"></path><path d="M1542.38 689.41L1455.91 372.09" stroke="rgba(0, 0, 0, 1)" stroke-width="1.5"></path><path d="M1542.38 689.41L1254.13 516.56" stroke="rgba(0, 0, 0, 1)" stroke-width="1.5"></path><circle r="5" cx="-95.55" cy="384.17" fill="rgba(0, 0, 0, 1)"></circle><circle r="5" cx="-61.81" cy="489.38" fill="rgba(0, 0, 0, 1)"></circle><circle r="5" cx="-44.92" cy="682.28" fill="rgba(0, 0, 0, 1)"></circle><circle r="5" cx="95.04" cy="395.06" fill="rgba(0, 0, 0, 1)"></circle><circle r="5" cx="74.3" cy="489.19" fill="rgba(0, 0, 0, 1)"></circle><circle r="5" cx="101.22" cy="649.81" fill="rgba(0, 0, 0, 1)"></circle><circle r="5" cx="260.64" cy="362.56" fill="rgba(0, 0, 0, 1)"></circle><circle r="5" cx="254.75" cy="557.61" fill="rgba(0, 0, 0, 1)"></circle><circle r="5" cx="403.76" cy="411.11" fill="rgba(0, 0, 0, 1)"></circle><circle r="5" cx="348.6" cy="495.85" fill="rgba(0, 0, 0, 1)"></circle><circle r="5" cx="396" cy="691.63" fill="rgba(0, 0, 0, 1)"></circle><circle r="5" cx="522.91" cy="398.19" fill="rgba(0, 0, 0, 1)"></circle><circle r="5" cx="492.78" cy="553.8" fill="rgba(0, 0, 0, 1)"></circle><circle r="5" cx="498.52" cy="709.32" fill="rgba(0, 0, 0, 1)"></circle><circle r="5" cx="672.67" cy="234.09" fill="rgba(0, 0, 0, 1)"></circle><circle r="5" cx="680.72" cy="354.9" fill="rgba(0, 0, 0, 1)"></circle><circle r="5" cx="643.16" cy="551.63" fill="rgba(0, 0, 0, 1)"></circle><circle r="5" cx="684.21" cy="645.9" fill="rgba(0, 0, 0, 1)"></circle><circle r="5" cx="837.71" cy="84.58" fill="rgba(0, 0, 0, 1)"></circle><circle r="5" cx="813.57" cy="223.88" fill="rgba(0, 0, 0, 1)"></circle><circle r="5" cx="854.64" cy="344.49" fill="rgba(0, 0, 0, 1)"></circle><circle r="5" cx="835.67" cy="542.12" fill="rgba(0, 0, 0, 1)"></circle><circle r="5" cx="801.53" cy="649.9" fill="rgba(0, 0, 0, 1)"></circle><circle r="5" cx="961.13" cy="-76.55" fill="rgba(0, 0, 0, 1)"></circle><circle r="5" cx="943.9" cy="74.98" fill="rgba(0, 0, 0, 1)"></circle><circle r="5" cx="960.83" cy="234.76" fill="rgba(0, 0, 0, 1)"></circle><circle r="5" cx="965.97" cy="354.43" fill="rgba(0, 0, 0, 1)"></circle><circle r="5" cx="1004.29" cy="556.59" fill="rgba(0, 0, 0, 1)"></circle><circle r="5" cx="943.33" cy="675.19" fill="rgba(0, 0, 0, 1)"></circle><circle r="5" cx="1153.71" cy="-84.9" fill="rgba(0, 0, 0, 1)"></circle><circle r="5" cx="1114.68" cy="107.8" fill="rgba(0, 0, 0, 1)"></circle><circle r="5" cx="1097.88" cy="258.74" fill="rgba(0, 0, 0, 1)"></circle><circle r="5" cx="1130.42" cy="385.96" fill="rgba(0, 0, 0, 1)"></circle><circle r="5" cx="1154.87" cy="655.62" fill="rgba(0, 0, 0, 1)"></circle><circle r="5" cx="1297.6" cy="-80.55" fill="rgba(0, 0, 0, 1)"></circle><circle r="5" cx="1267.05" cy="57.81" fill="rgba(0, 0, 0, 1)"></circle><circle r="5" cx="1246.77" cy="226.24" fill="rgba(0, 0, 0, 1)"></circle><circle r="5" cx="1299.49" cy="371" fill="rgba(0, 0, 0, 1)"></circle><circle r="5" cx="1254.13" cy="516.56" fill="rgba(0, 0, 0, 1)"></circle><circle r="5" cx="1262.69" cy="694.55" fill="rgba(0, 0, 0, 1)"></circle><circle r="5" cx="1454.08" cy="-103.68" fill="rgba(0, 0, 0, 1)"></circle><circle r="5" cx="1407.41" cy="48.8" fill="rgba(0, 0, 0, 1)"></circle><circle r="5" cx="1439.53" cy="235.71" fill="rgba(0, 0, 0, 1)"></circle><circle r="5" cx="1455.91" cy="372.09" fill="rgba(0, 0, 0, 1)"></circle><circle r="5" cx="1434.19" cy="543.84" fill="rgba(0, 0, 0, 1)"></circle><circle r="5" cx="1388.77" cy="695.88" fill="rgba(0, 0, 0, 1)"></circle><circle r="5" cx="1578.67" cy="-66.07" fill="rgba(0, 0, 0, 1)"></circle><circle r="5" cx="1595.8" cy="44.37" fill="rgba(0, 0, 0, 1)"></circle><circle r="5" cx="1588.51" cy="231.79" fill="rgba(0, 0, 0, 1)"></circle><circle r="5" cx="1586.43" cy="349.87" fill="rgba(0, 0, 0, 1)"></circle><circle r="5" cx="1567.87" cy="488.85" fill="rgba(0, 0, 0, 1)"></circle><circle r="5" cx="1542.38" cy="689.41" fill="rgba(0, 0, 0, 1)"></circle><path d="M-99.85 542.32L-99.85 542.32" stroke="hsl(200.60000000000002, 66.4%, 38%)" stroke-width="1.5"></path><path d="M-99.85 542.32L-74.12 649.98" stroke="hsl(200.60000000000002, 66.4%, 38%)" stroke-width="1.5"></path><path d="M-99.85 542.32L49.3 522.09" stroke="hsl(200.60000000000002, 66.4%, 38%)" stroke-width="1.5"></path><path d="M-74.12 649.98L-74.12 649.98" stroke="hsl(200.60000000000002, 66.4%, 38%)" stroke-width="1.5"></path><path d="M-74.12 649.98L49.3 522.09" stroke="hsl(200.60000000000002, 66.4%, 38%)" stroke-width="1.5"></path><path d="M-74.12 649.98L245.42 672.22" stroke="hsl(200.60000000000002, 66.4%, 38%)" stroke-width="1.5"></path><path d="M-74.12 649.98L257.75 525.69" stroke="hsl(200.60000000000002, 66.4%, 38%)" stroke-width="1.5"></path><path d="M49.3 522.09L49.3 522.09" stroke="hsl(200.60000000000002, 66.4%, 38%)" stroke-width="1.5"></path><path d="M494.48 702.7L494.48 702.7" stroke="hsl(200.60000000000002, 66.4%, 38%)" stroke-width="1.5"></path><path d="M494.48 702.7L390.31 658.01" stroke="hsl(200.60000000000002, 66.4%, 38%)" stroke-width="1.5"></path><path d="M494.48 702.7L506.89 554.53" stroke="hsl(200.60000000000002, 66.4%, 38%)" stroke-width="1.5"></path><path d="M494.48 702.7L647.61 643.73" stroke="hsl(200.60000000000002, 66.4%, 38%)" stroke-width="1.5"></path><path d="M494.48 702.7L380.39 513.22" stroke="hsl(200.60000000000002, 66.4%, 38%)" stroke-width="1.5"></path><path d="M707.65 367.2L707.65 367.2" stroke="hsl(200.60000000000002, 66.4%, 38%)" stroke-width="1.5"></path><path d="M707.65 367.2L850.75 363" stroke="hsl(200.60000000000002, 66.4%, 38%)" stroke-width="1.5"></path><path d="M707.65 367.2L697.45 556.78" stroke="hsl(200.60000000000002, 66.4%, 38%)" stroke-width="1.5"></path><path d="M707.65 367.2L506.89 554.53" stroke="hsl(200.60000000000002, 66.4%, 38%)" stroke-width="1.5"></path><path d="M707.65 367.2L647.61 643.73" stroke="hsl(200.60000000000002, 66.4%, 38%)" stroke-width="1.5"></path><path d="M647.61 643.73L647.61 643.73" stroke="hsl(200.60000000000002, 66.4%, 38%)" stroke-width="1.5"></path><path d="M647.61 643.73L697.45 556.78" stroke="hsl(200.60000000000002, 66.4%, 38%)" stroke-width="1.5"></path><path d="M647.61 643.73L797.08 652.27" stroke="hsl(200.60000000000002, 66.4%, 38%)" stroke-width="1.5"></path><path d="M647.61 643.73L506.89 554.53" stroke="hsl(200.60000000000002, 66.4%, 38%)" stroke-width="1.5"></path><path d="M647.61 643.73L390.31 658.01" stroke="hsl(200.60000000000002, 66.4%, 38%)" stroke-width="1.5"></path><path d="M1117.31 384.31L1117.31 384.31" stroke="hsl(200.60000000000002, 66.4%, 38%)" stroke-width="1.5"></path><path d="M1117.31 384.31L991.86 394.58" stroke="hsl(200.60000000000002, 66.4%, 38%)" stroke-width="1.5"></path><path d="M1117.31 384.31L1103.66 533.08" stroke="hsl(200.60000000000002, 66.4%, 38%)" stroke-width="1.5"></path><path d="M1117.31 384.31L1144.7 236.3" stroke="hsl(200.60000000000002, 66.4%, 38%)" stroke-width="1.5"></path><path d="M1117.31 384.31L988.23 258.63" stroke="hsl(200.60000000000002, 66.4%, 38%)" stroke-width="1.5"></path><path d="M1117.31 384.31L1310.39 411.88" stroke="hsl(200.60000000000002, 66.4%, 38%)" stroke-width="1.5"></path><path d="M1103.66 533.08L1103.66 533.08" stroke="hsl(200.60000000000002, 66.4%, 38%)" stroke-width="1.5"></path><path d="M1103.66 533.08L1009.37 644.44" stroke="hsl(200.60000000000002, 66.4%, 38%)" stroke-width="1.5"></path><path d="M1103.66 533.08L955.01 540.37" stroke="hsl(200.60000000000002, 66.4%, 38%)" stroke-width="1.5"></path><path d="M1103.66 533.08L991.86 394.58" stroke="hsl(200.60000000000002, 66.4%, 38%)" stroke-width="1.5"></path><path d="M1103.66 533.08L1280.58 497.51" stroke="hsl(200.60000000000002, 66.4%, 38%)" stroke-width="1.5"></path><path d="M1103.66 533.08L1252.69 692.01" stroke="hsl(200.60000000000002, 66.4%, 38%)" stroke-width="1.5"></path><path d="M1310.39 411.88L1310.39 411.88" stroke="hsl(200.60000000000002, 66.4%, 38%)" stroke-width="1.5"></path><path d="M1310.39 411.88L1280.58 497.51" stroke="hsl(200.60000000000002, 66.4%, 38%)" stroke-width="1.5"></path><path d="M1310.39 411.88L1440.61 536.42" stroke="hsl(200.60000000000002, 66.4%, 38%)" stroke-width="1.5"></path><path d="M1310.39 411.88L1388.48 242.16" stroke="hsl(200.60000000000002, 66.4%, 38%)" stroke-width="1.5"></path><path d="M1310.39 411.88L1240.89 233.22" stroke="hsl(200.60000000000002, 66.4%, 38%)" stroke-width="1.5"></path><path d="M1310.39 411.88L1103.66 533.08" stroke="hsl(200.60000000000002, 66.4%, 38%)" stroke-width="1.5"></path><path d="M1595.79 359.33L1595.79 359.33" stroke="hsl(200.60000000000002, 66.4%, 38%)" stroke-width="1.5"></path><path d="M1595.79 359.33L1595.15 222.05" stroke="hsl(200.60000000000002, 66.4%, 38%)" stroke-width="1.5"></path><path d="M1595.79 359.33L1567.81 503.62" stroke="hsl(200.60000000000002, 66.4%, 38%)" stroke-width="1.5"></path><path d="M1595.79 359.33L1440.61 536.42" stroke="hsl(200.60000000000002, 66.4%, 38%)" stroke-width="1.5"></path><path d="M1595.79 359.33L1388.48 242.16" stroke="hsl(200.60000000000002, 66.4%, 38%)" stroke-width="1.5"></path><path d="M1577.69 710.72L1577.69 710.72" stroke="hsl(200.60000000000002, 66.4%, 38%)" stroke-width="1.5"></path><path d="M1577.69 710.72L1405.75 659.15" stroke="hsl(200.60000000000002, 66.4%, 38%)" stroke-width="1.5"></path><path d="M1577.69 710.72L1567.81 503.62" stroke="hsl(200.60000000000002, 66.4%, 38%)" stroke-width="1.5"></path><path d="M1577.69 710.72L1440.61 536.42" stroke="hsl(200.60000000000002, 66.4%, 38%)" stroke-width="1.5"></path><path d="M1577.69 710.72L1252.69 692.01" stroke="hsl(200.60000000000002, 66.4%, 38%)" stroke-width="1.5"></path><path d="M1577.69 710.72L1595.79 359.33" stroke="hsl(200.60000000000002, 66.4%, 38%)" stroke-width="1.5"></path><path d="M257.75 525.69L257.75 525.69" stroke="hsl(200.60000000000002, 66.4%, 38%)" stroke-width="1.5"></path><path d="M257.75 525.69L380.39 513.22" stroke="hsl(200.60000000000002, 66.4%, 38%)" stroke-width="1.5"></path><path d="M257.75 525.69L245.42 672.22" stroke="hsl(200.60000000000002, 66.4%, 38%)" stroke-width="1.5"></path><path d="M257.75 525.69L390.31 658.01" stroke="hsl(200.60000000000002, 66.4%, 38%)" stroke-width="1.5"></path><path d="M245.42 672.22L245.42 672.22" stroke="hsl(200.60000000000002, 66.4%, 38%)" stroke-width="1.5"></path><path d="M245.42 672.22L390.31 658.01" stroke="hsl(200.60000000000002, 66.4%, 38%)" stroke-width="1.5"></path><path d="M245.42 672.22L380.39 513.22" stroke="hsl(200.60000000000002, 66.4%, 38%)" stroke-width="1.5"></path><path d="M245.42 672.22L49.3 522.09" stroke="hsl(200.60000000000002, 66.4%, 38%)" stroke-width="1.5"></path><path d="M245.42 672.22L494.48 702.7" stroke="hsl(200.60000000000002, 66.4%, 38%)" stroke-width="1.5"></path><path d="M245.42 672.22L506.89 554.53" stroke="hsl(200.60000000000002, 66.4%, 38%)" stroke-width="1.5"></path><path d="M380.39 513.22L380.39 513.22" stroke="hsl(200.60000000000002, 66.4%, 38%)" stroke-width="1.5"></path><path d="M380.39 513.22L506.89 554.53" stroke="hsl(200.60000000000002, 66.4%, 38%)" stroke-width="1.5"></path><path d="M380.39 513.22L390.31 658.01" stroke="hsl(200.60000000000002, 66.4%, 38%)" stroke-width="1.5"></path><path d="M390.31 658.01L390.31 658.01" stroke="hsl(200.60000000000002, 66.4%, 38%)" stroke-width="1.5"></path><path d="M390.31 658.01L506.89 554.53" stroke="hsl(200.60000000000002, 66.4%, 38%)" stroke-width="1.5"></path><path d="M506.89 554.53L506.89 554.53" stroke="hsl(200.60000000000002, 66.4%, 38%)" stroke-width="1.5"></path><path d="M697.45 556.78L697.45 556.78" stroke="hsl(200.60000000000002, 66.4%, 38%)" stroke-width="1.5"></path><path d="M697.45 556.78L797.08 652.27" stroke="hsl(200.60000000000002, 66.4%, 38%)" stroke-width="1.5"></path><path d="M850.75 363L850.75 363" stroke="hsl(200.60000000000002, 66.4%, 38%)" stroke-width="1.5"></path><path d="M850.75 363L991.86 394.58" stroke="hsl(200.60000000000002, 66.4%, 38%)" stroke-width="1.5"></path><path d="M850.75 363L988.23 258.63" stroke="hsl(200.60000000000002, 66.4%, 38%)" stroke-width="1.5"></path><path d="M850.75 363L955.01 540.37" stroke="hsl(200.60000000000002, 66.4%, 38%)" stroke-width="1.5"></path><path d="M797.08 652.27L797.08 652.27" stroke="hsl(200.60000000000002, 66.4%, 38%)" stroke-width="1.5"></path><path d="M988.23 258.63L988.23 258.63" stroke="hsl(200.60000000000002, 66.4%, 38%)" stroke-width="1.5"></path><path d="M988.23 258.63L991.86 394.58" stroke="hsl(200.60000000000002, 66.4%, 38%)" stroke-width="1.5"></path><path d="M988.23 258.63L1144.7 236.3" stroke="hsl(200.60000000000002, 66.4%, 38%)" stroke-width="1.5"></path><path d="M991.86 394.58L991.86 394.58" stroke="hsl(200.60000000000002, 66.4%, 38%)" stroke-width="1.5"></path><path d="M991.86 394.58L955.01 540.37" stroke="hsl(200.60000000000002, 66.4%, 38%)" stroke-width="1.5"></path><path d="M955.01 540.37L955.01 540.37" stroke="hsl(200.60000000000002, 66.4%, 38%)" stroke-width="1.5"></path><path d="M955.01 540.37L1009.37 644.44" stroke="hsl(200.60000000000002, 66.4%, 38%)" stroke-width="1.5"></path><path d="M1009.37 644.44L1009.37 644.44" stroke="hsl(200.60000000000002, 66.4%, 38%)" stroke-width="1.5"></path><path d="M1009.37 644.44L797.08 652.27" stroke="hsl(200.60000000000002, 66.4%, 38%)" stroke-width="1.5"></path><path d="M1144.7 236.3L1144.7 236.3" stroke="hsl(200.60000000000002, 66.4%, 38%)" stroke-width="1.5"></path><path d="M1144.7 236.3L1240.89 233.22" stroke="hsl(200.60000000000002, 66.4%, 38%)" stroke-width="1.5"></path><path d="M1300.88 -67.65L1300.88 -67.65" stroke="hsl(200.60000000000002, 66.4%, 38%)" stroke-width="1.5"></path><path d="M1300.88 -67.65L1400.31 -54.25" stroke="hsl(200.60000000000002, 66.4%, 38%)" stroke-width="1.5"></path><path d="M1300.88 -67.65L1260.73 75.18" stroke="hsl(200.60000000000002, 66.4%, 38%)" stroke-width="1.5"></path><path d="M1300.88 -67.65L1461.83 82.56" stroke="hsl(200.60000000000002, 66.4%, 38%)" stroke-width="1.5"></path><path d="M1260.73 75.18L1260.73 75.18" stroke="hsl(200.60000000000002, 66.4%, 38%)" stroke-width="1.5"></path><path d="M1260.73 75.18L1240.89 233.22" stroke="hsl(200.60000000000002, 66.4%, 38%)" stroke-width="1.5"></path><path d="M1260.73 75.18L1400.31 -54.25" stroke="hsl(200.60000000000002, 66.4%, 38%)" stroke-width="1.5"></path><path d="M1240.89 233.22L1240.89 233.22" stroke="hsl(200.60000000000002, 66.4%, 38%)" stroke-width="1.5"></path><path d="M1240.89 233.22L1388.48 242.16" stroke="hsl(200.60000000000002, 66.4%, 38%)" stroke-width="1.5"></path><path d="M1280.58 497.51L1280.58 497.51" stroke="hsl(200.60000000000002, 66.4%, 38%)" stroke-width="1.5"></path><path d="M1280.58 497.51L1440.61 536.42" stroke="hsl(200.60000000000002, 66.4%, 38%)" stroke-width="1.5"></path><path d="M1280.58 497.51L1252.69 692.01" stroke="hsl(200.60000000000002, 66.4%, 38%)" stroke-width="1.5"></path><path d="M1252.69 692.01L1252.69 692.01" stroke="hsl(200.60000000000002, 66.4%, 38%)" stroke-width="1.5"></path><path d="M1252.69 692.01L1405.75 659.15" stroke="hsl(200.60000000000002, 66.4%, 38%)" stroke-width="1.5"></path><path d="M1400.31 -54.25L1400.31 -54.25" stroke="hsl(200.60000000000002, 66.4%, 38%)" stroke-width="1.5"></path><path d="M1400.31 -54.25L1461.83 82.56" stroke="hsl(200.60000000000002, 66.4%, 38%)" stroke-width="1.5"></path><path d="M1400.31 -54.25L1558.01 -82.62" stroke="hsl(200.60000000000002, 66.4%, 38%)" stroke-width="1.5"></path><path d="M1400.31 -54.25L1553.78 90.96" stroke="hsl(200.60000000000002, 66.4%, 38%)" stroke-width="1.5"></path><path d="M1461.83 82.56L1461.83 82.56" stroke="hsl(200.60000000000002, 66.4%, 38%)" stroke-width="1.5"></path><path d="M1461.83 82.56L1553.78 90.96" stroke="hsl(200.60000000000002, 66.4%, 38%)" stroke-width="1.5"></path><path d="M1388.48 242.16L1388.48 242.16" stroke="hsl(200.60000000000002, 66.4%, 38%)" stroke-width="1.5"></path><path d="M1388.48 242.16L1461.83 82.56" stroke="hsl(200.60000000000002, 66.4%, 38%)" stroke-width="1.5"></path><path d="M1388.48 242.16L1595.15 222.05" stroke="hsl(200.60000000000002, 66.4%, 38%)" stroke-width="1.5"></path><path d="M1388.48 242.16L1260.73 75.18" stroke="hsl(200.60000000000002, 66.4%, 38%)" stroke-width="1.5"></path><path d="M1440.61 536.42L1440.61 536.42" stroke="hsl(200.60000000000002, 66.4%, 38%)" stroke-width="1.5"></path><path d="M1440.61 536.42L1405.75 659.15" stroke="hsl(200.60000000000002, 66.4%, 38%)" stroke-width="1.5"></path><path d="M1440.61 536.42L1567.81 503.62" stroke="hsl(200.60000000000002, 66.4%, 38%)" stroke-width="1.5"></path><path d="M1405.75 659.15L1405.75 659.15" stroke="hsl(200.60000000000002, 66.4%, 38%)" stroke-width="1.5"></path><path d="M1405.75 659.15L1280.58 497.51" stroke="hsl(200.60000000000002, 66.4%, 38%)" stroke-width="1.5"></path><path d="M1558.01 -82.62L1558.01 -82.62" stroke="hsl(200.60000000000002, 66.4%, 38%)" stroke-width="1.5"></path><path d="M1558.01 -82.62L1553.78 90.96" stroke="hsl(200.60000000000002, 66.4%, 38%)" stroke-width="1.5"></path><path d="M1558.01 -82.62L1461.83 82.56" stroke="hsl(200.60000000000002, 66.4%, 38%)" stroke-width="1.5"></path><path d="M1558.01 -82.62L1300.88 -67.65" stroke="hsl(200.60000000000002, 66.4%, 38%)" stroke-width="1.5"></path><path d="M1553.78 90.96L1553.78 90.96" stroke="hsl(200.60000000000002, 66.4%, 38%)" stroke-width="1.5"></path><path d="M1553.78 90.96L1595.15 222.05" stroke="hsl(200.60000000000002, 66.4%, 38%)" stroke-width="1.5"></path><path d="M1553.78 90.96L1388.48 242.16" stroke="hsl(200.60000000000002, 66.4%, 38%)" stroke-width="1.5"></path><path d="M1553.78 90.96L1595.79 359.33" stroke="hsl(200.60000000000002, 66.4%, 38%)" stroke-width="1.5"></path><path d="M1595.15 222.05L1595.15 222.05" stroke="hsl(200.60000000000002, 66.4%, 38%)" stroke-width="1.5"></path><path d="M1595.15 222.05L1461.83 82.56" stroke="hsl(200.60000000000002, 66.4%, 38%)" stroke-width="1.5"></path><path d="M1595.15 222.05L1567.81 503.62" stroke="hsl(200.60000000000002, 66.4%, 38%)" stroke-width="1.5"></path><path d="M1595.15 222.05L1558.01 -82.62" stroke="hsl(200.60000000000002, 66.4%, 38%)" stroke-width="1.5"></path><path d="M1567.81 503.62L1567.81 503.62" stroke="hsl(200.60000000000002, 66.4%, 38%)" stroke-width="1.5"></path><circle r="25" cx="-99.85" cy="542.32" fill="url(#SvgjsRadialGradient1003)"></circle><circle r="25" cx="-74.12" cy="649.98" fill="url(#SvgjsRadialGradient1003)"></circle><circle r="25" cx="49.3" cy="522.09" fill="url(#SvgjsRadialGradient1003)"></circle><circle r="25" cx="494.48" cy="702.7" fill="url(#SvgjsRadialGradient1003)"></circle><circle r="25" cx="707.65" cy="367.2" fill="url(#SvgjsRadialGradient1003)"></circle><circle r="25" cx="647.61" cy="643.73" fill="url(#SvgjsRadialGradient1003)"></circle><circle r="25" cx="1117.31" cy="384.31" fill="url(#SvgjsRadialGradient1003)"></circle><circle r="25" cx="1103.66" cy="533.08" fill="url(#SvgjsRadialGradient1003)"></circle><circle r="25" cx="1310.39" cy="411.88" fill="url(#SvgjsRadialGradient1003)"></circle><circle r="25" cx="1595.79" cy="359.33" fill="url(#SvgjsRadialGradient1003)"></circle><circle r="25" cx="1577.69" cy="710.72" fill="url(#SvgjsRadialGradient1003)"></circle><circle r="5" cx="257.75" cy="525.69" fill="#8cadbe"></circle><circle r="5" cx="245.42" cy="672.22" fill="#8cadbe"></circle><circle r="5" cx="380.39" cy="513.22" fill="#8cadbe"></circle><circle r="5" cx="390.31" cy="658.01" fill="#8cadbe"></circle><circle r="5" cx="506.89" cy="554.53" fill="#8cadbe"></circle><circle r="5" cx="697.45" cy="556.78" fill="#8cadbe"></circle><circle r="5" cx="850.75" cy="363" fill="#8cadbe"></circle><circle r="5" cx="797.08" cy="652.27" fill="#8cadbe"></circle><circle r="5" cx="988.23" cy="258.63" fill="#8cadbe"></circle><circle r="5" cx="991.86" cy="394.58" fill="#8cadbe"></circle><circle r="5" cx="955.01" cy="540.37" fill="#8cadbe"></circle><circle r="5" cx="1009.37" cy="644.44" fill="#8cadbe"></circle><circle r="5" cx="1144.7" cy="236.3" fill="#8cadbe"></circle><circle r="5" cx="1300.88" cy="-67.65" fill="#8cadbe"></circle><circle r="5" cx="1260.73" cy="75.18" fill="#8cadbe"></circle><circle r="5" cx="1240.89" cy="233.22" fill="#8cadbe"></circle><circle r="5" cx="1280.58" cy="497.51" fill="#8cadbe"></circle><circle r="5" cx="1252.69" cy="692.01" fill="#8cadbe"></circle><circle r="5" cx="1400.31" cy="-54.25" fill="#8cadbe"></circle><circle r="5" cx="1461.83" cy="82.56" fill="#8cadbe"></circle><circle r="5" cx="1388.48" cy="242.16" fill="#8cadbe"></circle><circle r="5" cx="1440.61" cy="536.42" fill="#8cadbe"></circle><circle r="5" cx="1405.75" cy="659.15" fill="#8cadbe"></circle><circle r="5" cx="1558.01" cy="-82.62" fill="#8cadbe"></circle><circle r="5" cx="1553.78" cy="90.96" fill="#8cadbe"></circle><circle r="5" cx="1595.15" cy="222.05" fill="#8cadbe"></circle><circle r="5" cx="1567.81" cy="503.62" fill="#8cadbe"></circle></g><defs><mask id="SvgjsMask1002"><rect width="1440" height="560" fill="#ffffff"></rect></mask><radialGradient id="SvgjsRadialGradient1003"><stop stop-color="#ffffff" offset="0.1"></stop><stop stop-color="rgba(25, 90, 124, 1)" offset="0.2"></stop><stop stop-color="rgba(25, 90, 124, 0)" offset="1"></stop></radialGradient></defs></svg>