<svg xmlns="http://www.w3.org/2000/svg" version="1.1" xmlns:xlink="http://www.w3.org/1999/xlink" xmlns:svgjs="http://svgjs.com/svgjs" width="1440" height="560" preserveAspectRatio="none" viewBox="0 0 1440 560"><g mask="url(&quot;#SvgjsMask1012&quot;)" fill="none"><rect width="1440" height="560" x="0" y="0" fill="rgba(239, 169, 0, 0.7)"></rect><path d="M-69.59 368.38L-69.59 368.38" stroke="rgba(0, 0, 0, 0.7)" stroke-width="1.5"></path><path d="M-69.59 368.38L-96.29 517.89" stroke="rgba(0, 0, 0, 0.7)" stroke-width="1.5"></path><path d="M-69.59 368.38L84.55 354.69" stroke="rgba(0, 0, 0, 0.7)" stroke-width="1.5"></path><path d="M-69.59 368.38L94.41 557.05" stroke="rgba(0, 0, 0, 0.7)" stroke-width="1.5"></path><path d="M-69.59 368.38L56.34 638.35" stroke="rgba(0, 0, 0, 0.7)" stroke-width="1.5"></path><path d="M-69.59 368.38L260.03 391.96" stroke="rgba(0, 0, 0, 0.7)" stroke-width="1.5"></path><path d="M-69.59 368.38L-83.9 711.2" stroke="rgba(0, 0, 0, 0.7)" stroke-width="1.5"></path><path d="M-96.29 517.89L-96.29 517.89" stroke="rgba(0, 0, 0, 0.7)" stroke-width="1.5"></path><path d="M-96.29 517.89L-83.9 711.2" stroke="rgba(0, 0, 0, 0.7)" stroke-width="1.5"></path><path d="M-83.9 711.2L-83.9 711.2" stroke="rgba(0, 0, 0, 0.7)" stroke-width="1.5"></path><path d="M-83.9 711.2L56.34 638.35" stroke="rgba(0, 0, 0, 0.7)" stroke-width="1.5"></path><path d="M84.55 354.69L84.55 354.69" stroke="rgba(0, 0, 0, 0.7)" stroke-width="1.5"></path><path d="M84.55 354.69L260.03 391.96" stroke="rgba(0, 0, 0, 0.7)" stroke-width="1.5"></path><path d="M84.55 354.69L94.41 557.05" stroke="rgba(0, 0, 0, 0.7)" stroke-width="1.5"></path><path d="M84.55 354.69L-96.29 517.89" stroke="rgba(0, 0, 0, 0.7)" stroke-width="1.5"></path><path d="M84.55 354.69L256.82 553.56" stroke="rgba(0, 0, 0, 0.7)" stroke-width="1.5"></path><path d="M84.55 354.69L349 408.04" stroke="rgba(0, 0, 0, 0.7)" stroke-width="1.5"></path><path d="M94.41 557.05L94.41 557.05" stroke="rgba(0, 0, 0, 0.7)" stroke-width="1.5"></path><path d="M94.41 557.05L56.34 638.35" stroke="rgba(0, 0, 0, 0.7)" stroke-width="1.5"></path><path d="M56.34 638.35L56.34 638.35" stroke="rgba(0, 0, 0, 0.7)" stroke-width="1.5"></path><path d="M56.34 638.35L196.08 683.9" stroke="rgba(0, 0, 0, 0.7)" stroke-width="1.5"></path><path d="M56.34 638.35L-96.29 517.89" stroke="rgba(0, 0, 0, 0.7)" stroke-width="1.5"></path><path d="M260.03 391.96L260.03 391.96" stroke="rgba(0, 0, 0, 0.7)" stroke-width="1.5"></path><path d="M260.03 391.96L349 408.04" stroke="rgba(0, 0, 0, 0.7)" stroke-width="1.5"></path><path d="M260.03 391.96L362.47 493.58" stroke="rgba(0, 0, 0, 0.7)" stroke-width="1.5"></path><path d="M260.03 391.96L256.82 553.56" stroke="rgba(0, 0, 0, 0.7)" stroke-width="1.5"></path><path d="M256.82 553.56L256.82 553.56" stroke="rgba(0, 0, 0, 0.7)" stroke-width="1.5"></path><path d="M256.82 553.56L362.47 493.58" stroke="rgba(0, 0, 0, 0.7)" stroke-width="1.5"></path><path d="M256.82 553.56L196.08 683.9" stroke="rgba(0, 0, 0, 0.7)" stroke-width="1.5"></path><path d="M256.82 553.56L352.19 679.95" stroke="rgba(0, 0, 0, 0.7)" stroke-width="1.5"></path><path d="M256.82 553.56L94.41 557.05" stroke="rgba(0, 0, 0, 0.7)" stroke-width="1.5"></path><path d="M196.08 683.9L196.08 683.9" stroke="rgba(0, 0, 0, 0.7)" stroke-width="1.5"></path><path d="M196.08 683.9L352.19 679.95" stroke="rgba(0, 0, 0, 0.7)" stroke-width="1.5"></path><path d="M196.08 683.9L94.41 557.05" stroke="rgba(0, 0, 0, 0.7)" stroke-width="1.5"></path><path d="M196.08 683.9L362.47 493.58" stroke="rgba(0, 0, 0, 0.7)" stroke-width="1.5"></path><path d="M349 408.04L349 408.04" stroke="rgba(0, 0, 0, 0.7)" stroke-width="1.5"></path><path d="M349 408.04L362.47 493.58" stroke="rgba(0, 0, 0, 0.7)" stroke-width="1.5"></path><path d="M349 408.04L256.82 553.56" stroke="rgba(0, 0, 0, 0.7)" stroke-width="1.5"></path><path d="M349 408.04L509.26 340.89" stroke="rgba(0, 0, 0, 0.7)" stroke-width="1.5"></path><path d="M362.47 493.58L362.47 493.58" stroke="rgba(0, 0, 0, 0.7)" stroke-width="1.5"></path><path d="M362.47 493.58L514.83 538.9" stroke="rgba(0, 0, 0, 0.7)" stroke-width="1.5"></path><path d="M362.47 493.58L352.19 679.95" stroke="rgba(0, 0, 0, 0.7)" stroke-width="1.5"></path><path d="M352.19 679.95L352.19 679.95" stroke="rgba(0, 0, 0, 0.7)" stroke-width="1.5"></path><path d="M352.19 679.95L514.83 538.9" stroke="rgba(0, 0, 0, 0.7)" stroke-width="1.5"></path><path d="M352.19 679.95L349 408.04" stroke="rgba(0, 0, 0, 0.7)" stroke-width="1.5"></path><path d="M352.19 679.95L94.41 557.05" stroke="rgba(0, 0, 0, 0.7)" stroke-width="1.5"></path><path d="M509.26 340.89L509.26 340.89" stroke="rgba(0, 0, 0, 0.7)" stroke-width="1.5"></path><path d="M509.26 340.89L514.83 538.9" stroke="rgba(0, 0, 0, 0.7)" stroke-width="1.5"></path><path d="M509.26 340.89L362.47 493.58" stroke="rgba(0, 0, 0, 0.7)" stroke-width="1.5"></path><path d="M509.26 340.89L260.03 391.96" stroke="rgba(0, 0, 0, 0.7)" stroke-width="1.5"></path><path d="M514.83 538.9L514.83 538.9" stroke="rgba(0, 0, 0, 0.7)" stroke-width="1.5"></path><path d="M514.83 538.9L696.1 521.83" stroke="rgba(0, 0, 0, 0.7)" stroke-width="1.5"></path><path d="M514.83 538.9L665.57 649.02" stroke="rgba(0, 0, 0, 0.7)" stroke-width="1.5"></path><path d="M514.83 538.9L349 408.04" stroke="rgba(0, 0, 0, 0.7)" stroke-width="1.5"></path><path d="M696.1 521.83L696.1 521.83" stroke="rgba(0, 0, 0, 0.7)" stroke-width="1.5"></path><path d="M696.1 521.83L811.39 560.49" stroke="rgba(0, 0, 0, 0.7)" stroke-width="1.5"></path><path d="M696.1 521.83L665.57 649.02" stroke="rgba(0, 0, 0, 0.7)" stroke-width="1.5"></path><path d="M665.57 649.02L665.57 649.02" stroke="rgba(0, 0, 0, 0.7)" stroke-width="1.5"></path><path d="M665.57 649.02L811.39 560.49" stroke="rgba(0, 0, 0, 0.7)" stroke-width="1.5"></path><path d="M665.57 649.02L848.5 690.43" stroke="rgba(0, 0, 0, 0.7)" stroke-width="1.5"></path><path d="M665.57 649.02L808.33 378.05" stroke="rgba(0, 0, 0, 0.7)" stroke-width="1.5"></path><path d="M665.57 649.02L352.19 679.95" stroke="rgba(0, 0, 0, 0.7)" stroke-width="1.5"></path><path d="M834.84 248.68L834.84 248.68" stroke="rgba(0, 0, 0, 0.7)" stroke-width="1.5"></path><path d="M834.84 248.68L953.42 241.45" stroke="rgba(0, 0, 0, 0.7)" stroke-width="1.5"></path><path d="M834.84 248.68L808.33 378.05" stroke="rgba(0, 0, 0, 0.7)" stroke-width="1.5"></path><path d="M834.84 248.68L953.45 97.61" stroke="rgba(0, 0, 0, 0.7)" stroke-width="1.5"></path><path d="M808.33 378.05L808.33 378.05" stroke="rgba(0, 0, 0, 0.7)" stroke-width="1.5"></path><path d="M808.33 378.05L696.1 521.83" stroke="rgba(0, 0, 0, 0.7)" stroke-width="1.5"></path><path d="M808.33 378.05L811.39 560.49" stroke="rgba(0, 0, 0, 0.7)" stroke-width="1.5"></path><path d="M808.33 378.05L953.42 241.45" stroke="rgba(0, 0, 0, 0.7)" stroke-width="1.5"></path><path d="M811.39 560.49L811.39 560.49" stroke="rgba(0, 0, 0, 0.7)" stroke-width="1.5"></path><path d="M811.39 560.49L848.5 690.43" stroke="rgba(0, 0, 0, 0.7)" stroke-width="1.5"></path><path d="M811.39 560.49L982.35 550.14" stroke="rgba(0, 0, 0, 0.7)" stroke-width="1.5"></path><path d="M811.39 560.49L991.76 650.14" stroke="rgba(0, 0, 0, 0.7)" stroke-width="1.5"></path><path d="M848.5 690.43L848.5 690.43" stroke="rgba(0, 0, 0, 0.7)" stroke-width="1.5"></path><path d="M848.5 690.43L991.76 650.14" stroke="rgba(0, 0, 0, 0.7)" stroke-width="1.5"></path><path d="M848.5 690.43L982.35 550.14" stroke="rgba(0, 0, 0, 0.7)" stroke-width="1.5"></path><path d="M989.77 -55.44L989.77 -55.44" stroke="rgba(0, 0, 0, 0.7)" stroke-width="1.5"></path><path d="M989.77 -55.44L1109.34 -83.69" stroke="rgba(0, 0, 0, 0.7)" stroke-width="1.5"></path><path d="M989.77 -55.44L953.45 97.61" stroke="rgba(0, 0, 0, 0.7)" stroke-width="1.5"></path><path d="M989.77 -55.44L953.42 241.45" stroke="rgba(0, 0, 0, 0.7)" stroke-width="1.5"></path><path d="M953.45 97.61L953.45 97.61" stroke="rgba(0, 0, 0, 0.7)" stroke-width="1.5"></path><path d="M953.45 97.61L953.42 241.45" stroke="rgba(0, 0, 0, 0.7)" stroke-width="1.5"></path><path d="M953.45 97.61L1109.34 -83.69" stroke="rgba(0, 0, 0, 0.7)" stroke-width="1.5"></path><path d="M953.45 97.61L1009.9 375.81" stroke="rgba(0, 0, 0, 0.7)" stroke-width="1.5"></path><path d="M953.45 97.61L1113.86 352.39" stroke="rgba(0, 0, 0, 0.7)" stroke-width="1.5"></path><path d="M953.42 241.45L953.42 241.45" stroke="rgba(0, 0, 0, 0.7)" stroke-width="1.5"></path><path d="M953.42 241.45L1009.9 375.81" stroke="rgba(0, 0, 0, 0.7)" stroke-width="1.5"></path><path d="M953.42 241.45L1113.86 352.39" stroke="rgba(0, 0, 0, 0.7)" stroke-width="1.5"></path><path d="M1009.9 375.81L1009.9 375.81" stroke="rgba(0, 0, 0, 0.7)" stroke-width="1.5"></path><path d="M1009.9 375.81L1113.86 352.39" stroke="rgba(0, 0, 0, 0.7)" stroke-width="1.5"></path><path d="M1009.9 375.81L1129.15 503.73" stroke="rgba(0, 0, 0, 0.7)" stroke-width="1.5"></path><path d="M1009.9 375.81L982.35 550.14" stroke="rgba(0, 0, 0, 0.7)" stroke-width="1.5"></path><path d="M1009.9 375.81L808.33 378.05" stroke="rgba(0, 0, 0, 0.7)" stroke-width="1.5"></path><path d="M982.35 550.14L982.35 550.14" stroke="rgba(0, 0, 0, 0.7)" stroke-width="1.5"></path><path d="M982.35 550.14L991.76 650.14" stroke="rgba(0, 0, 0, 0.7)" stroke-width="1.5"></path><path d="M991.76 650.14L991.76 650.14" stroke="rgba(0, 0, 0, 0.7)" stroke-width="1.5"></path><path d="M991.76 650.14L1116.34 639.47" stroke="rgba(0, 0, 0, 0.7)" stroke-width="1.5"></path><path d="M991.76 650.14L1129.15 503.73" stroke="rgba(0, 0, 0, 0.7)" stroke-width="1.5"></path><path d="M1109.34 -83.69L1109.34 -83.69" stroke="rgba(0, 0, 0, 0.7)" stroke-width="1.5"></path><path d="M1109.34 -83.69L1300.21 -104.69" stroke="rgba(0, 0, 0, 0.7)" stroke-width="1.5"></path><path d="M1109.34 -83.69L1274.74 42.09" stroke="rgba(0, 0, 0, 0.7)" stroke-width="1.5"></path><path d="M1109.34 -83.69L1438.67 -106.99" stroke="rgba(0, 0, 0, 0.7)" stroke-width="1.5"></path><path d="M1109.34 -83.69L1389.77 110.35" stroke="rgba(0, 0, 0, 0.7)" stroke-width="1.5"></path><path d="M1113.86 352.39L1113.86 352.39" stroke="rgba(0, 0, 0, 0.7)" stroke-width="1.5"></path><path d="M1113.86 352.39L1262.35 352.71" stroke="rgba(0, 0, 0, 0.7)" stroke-width="1.5"></path><path d="M1113.86 352.39L1129.15 503.73" stroke="rgba(0, 0, 0, 0.7)" stroke-width="1.5"></path><path d="M1113.86 352.39L1256.17 241.05" stroke="rgba(0, 0, 0, 0.7)" stroke-width="1.5"></path><path d="M1129.15 503.73L1129.15 503.73" stroke="rgba(0, 0, 0, 0.7)" stroke-width="1.5"></path><path d="M1129.15 503.73L1254.33 513.82" stroke="rgba(0, 0, 0, 0.7)" stroke-width="1.5"></path><path d="M1129.15 503.73L1116.34 639.47" stroke="rgba(0, 0, 0, 0.7)" stroke-width="1.5"></path><path d="M1129.15 503.73L982.35 550.14" stroke="rgba(0, 0, 0, 0.7)" stroke-width="1.5"></path><path d="M1116.34 639.47L1116.34 639.47" stroke="rgba(0, 0, 0, 0.7)" stroke-width="1.5"></path><path d="M1116.34 639.47L982.35 550.14" stroke="rgba(0, 0, 0, 0.7)" stroke-width="1.5"></path><path d="M1116.34 639.47L1254.33 513.82" stroke="rgba(0, 0, 0, 0.7)" stroke-width="1.5"></path><path d="M1116.34 639.47L848.5 690.43" stroke="rgba(0, 0, 0, 0.7)" stroke-width="1.5"></path><path d="M1300.21 -104.69L1300.21 -104.69" stroke="rgba(0, 0, 0, 0.7)" stroke-width="1.5"></path><path d="M1300.21 -104.69L1438.67 -106.99" stroke="rgba(0, 0, 0, 0.7)" stroke-width="1.5"></path><path d="M1300.21 -104.69L1274.74 42.09" stroke="rgba(0, 0, 0, 0.7)" stroke-width="1.5"></path><path d="M1274.74 42.09L1274.74 42.09" stroke="rgba(0, 0, 0, 0.7)" stroke-width="1.5"></path><path d="M1274.74 42.09L1389.77 110.35" stroke="rgba(0, 0, 0, 0.7)" stroke-width="1.5"></path><path d="M1274.74 42.09L1256.17 241.05" stroke="rgba(0, 0, 0, 0.7)" stroke-width="1.5"></path><path d="M1274.74 42.09L1438.67 -106.99" stroke="rgba(0, 0, 0, 0.7)" stroke-width="1.5"></path><path d="M1256.17 241.05L1256.17 241.05" stroke="rgba(0, 0, 0, 0.7)" stroke-width="1.5"></path><path d="M1256.17 241.05L1262.35 352.71" stroke="rgba(0, 0, 0, 0.7)" stroke-width="1.5"></path><path d="M1256.17 241.05L1418.16 261.33" stroke="rgba(0, 0, 0, 0.7)" stroke-width="1.5"></path><path d="M1256.17 241.05L1389.77 110.35" stroke="rgba(0, 0, 0, 0.7)" stroke-width="1.5"></path><path d="M1262.35 352.71L1262.35 352.71" stroke="rgba(0, 0, 0, 0.7)" stroke-width="1.5"></path><path d="M1262.35 352.71L1391.05 401.36" stroke="rgba(0, 0, 0, 0.7)" stroke-width="1.5"></path><path d="M1254.33 513.82L1254.33 513.82" stroke="rgba(0, 0, 0, 0.7)" stroke-width="1.5"></path><path d="M1254.33 513.82L1262.35 352.71" stroke="rgba(0, 0, 0, 0.7)" stroke-width="1.5"></path><path d="M1254.33 513.82L1418.23 505.21" stroke="rgba(0, 0, 0, 0.7)" stroke-width="1.5"></path><path d="M1254.33 513.82L1391.05 401.36" stroke="rgba(0, 0, 0, 0.7)" stroke-width="1.5"></path><path d="M1438.67 -106.99L1438.67 -106.99" stroke="rgba(0, 0, 0, 0.7)" stroke-width="1.5"></path><path d="M1438.67 -106.99L1591.62 -84.64" stroke="rgba(0, 0, 0, 0.7)" stroke-width="1.5"></path><path d="M1438.67 -106.99L1389.77 110.35" stroke="rgba(0, 0, 0, 0.7)" stroke-width="1.5"></path><path d="M1438.67 -106.99L1612.17 42.46" stroke="rgba(0, 0, 0, 0.7)" stroke-width="1.5"></path><path d="M1389.77 110.35L1389.77 110.35" stroke="rgba(0, 0, 0, 0.7)" stroke-width="1.5"></path><path d="M1389.77 110.35L1418.16 261.33" stroke="rgba(0, 0, 0, 0.7)" stroke-width="1.5"></path><path d="M1389.77 110.35L1540.09 215.9" stroke="rgba(0, 0, 0, 0.7)" stroke-width="1.5"></path><path d="M1389.77 110.35L1612.17 42.46" stroke="rgba(0, 0, 0, 0.7)" stroke-width="1.5"></path><path d="M1418.16 261.33L1418.16 261.33" stroke="rgba(0, 0, 0, 0.7)" stroke-width="1.5"></path><path d="M1418.16 261.33L1540.09 215.9" stroke="rgba(0, 0, 0, 0.7)" stroke-width="1.5"></path><path d="M1418.16 261.33L1391.05 401.36" stroke="rgba(0, 0, 0, 0.7)" stroke-width="1.5"></path><path d="M1418.16 261.33L1262.35 352.71" stroke="rgba(0, 0, 0, 0.7)" stroke-width="1.5"></path><path d="M1391.05 401.36L1391.05 401.36" stroke="rgba(0, 0, 0, 0.7)" stroke-width="1.5"></path><path d="M1391.05 401.36L1418.23 505.21" stroke="rgba(0, 0, 0, 0.7)" stroke-width="1.5"></path><path d="M1418.23 505.21L1418.23 505.21" stroke="rgba(0, 0, 0, 0.7)" stroke-width="1.5"></path><path d="M1418.23 505.21L1544.62 537.79" stroke="rgba(0, 0, 0, 0.7)" stroke-width="1.5"></path><path d="M1418.23 505.21L1425.5 650.97" stroke="rgba(0, 0, 0, 0.7)" stroke-width="1.5"></path><path d="M1418.23 505.21L1580.2 395.25" stroke="rgba(0, 0, 0, 0.7)" stroke-width="1.5"></path><path d="M1418.23 505.21L1262.35 352.71" stroke="rgba(0, 0, 0, 0.7)" stroke-width="1.5"></path><path d="M1425.5 650.97L1425.5 650.97" stroke="rgba(0, 0, 0, 0.7)" stroke-width="1.5"></path><path d="M1425.5 650.97L1561.14 671.11" stroke="rgba(0, 0, 0, 0.7)" stroke-width="1.5"></path><path d="M1591.62 -84.64L1591.62 -84.64" stroke="rgba(0, 0, 0, 0.7)" stroke-width="1.5"></path><path d="M1591.62 -84.64L1612.17 42.46" stroke="rgba(0, 0, 0, 0.7)" stroke-width="1.5"></path><path d="M1591.62 -84.64L1389.77 110.35" stroke="rgba(0, 0, 0, 0.7)" stroke-width="1.5"></path><path d="M1591.62 -84.64L1300.21 -104.69" stroke="rgba(0, 0, 0, 0.7)" stroke-width="1.5"></path><path d="M1591.62 -84.64L1540.09 215.9" stroke="rgba(0, 0, 0, 0.7)" stroke-width="1.5"></path><path d="M1591.62 -84.64L1274.74 42.09" stroke="rgba(0, 0, 0, 0.7)" stroke-width="1.5"></path><path d="M1612.17 42.46L1612.17 42.46" stroke="rgba(0, 0, 0, 0.7)" stroke-width="1.5"></path><path d="M1612.17 42.46L1540.09 215.9" stroke="rgba(0, 0, 0, 0.7)" stroke-width="1.5"></path><path d="M1540.09 215.9L1540.09 215.9" stroke="rgba(0, 0, 0, 0.7)" stroke-width="1.5"></path><path d="M1540.09 215.9L1580.2 395.25" stroke="rgba(0, 0, 0, 0.7)" stroke-width="1.5"></path><path d="M1580.2 395.25L1580.2 395.25" stroke="rgba(0, 0, 0, 0.7)" stroke-width="1.5"></path><path d="M1580.2 395.25L1544.62 537.79" stroke="rgba(0, 0, 0, 0.7)" stroke-width="1.5"></path><path d="M1544.62 537.79L1544.62 537.79" stroke="rgba(0, 0, 0, 0.7)" stroke-width="1.5"></path><path d="M1544.62 537.79L1561.14 671.11" stroke="rgba(0, 0, 0, 0.7)" stroke-width="1.5"></path><path d="M1544.62 537.79L1425.5 650.97" stroke="rgba(0, 0, 0, 0.7)" stroke-width="1.5"></path><path d="M1544.62 537.79L1391.05 401.36" stroke="rgba(0, 0, 0, 0.7)" stroke-width="1.5"></path><path d="M1561.14 671.11L1561.14 671.11" stroke="rgba(0, 0, 0, 0.7)" stroke-width="1.5"></path><path d="M1561.14 671.11L1418.23 505.21" stroke="rgba(0, 0, 0, 0.7)" stroke-width="1.5"></path><circle r="5" cx="-69.59" cy="368.38" fill="rgba(0, 0, 0, 0.7)"></circle><circle r="5" cx="-96.29" cy="517.89" fill="rgba(0, 0, 0, 0.7)"></circle><circle r="5" cx="-83.9" cy="711.2" fill="rgba(0, 0, 0, 0.7)"></circle><circle r="5" cx="84.55" cy="354.69" fill="rgba(0, 0, 0, 0.7)"></circle><circle r="5" cx="94.41" cy="557.05" fill="rgba(0, 0, 0, 0.7)"></circle><circle r="5" cx="56.34" cy="638.35" fill="rgba(0, 0, 0, 0.7)"></circle><circle r="5" cx="260.03" cy="391.96" fill="rgba(0, 0, 0, 0.7)"></circle><circle r="5" cx="256.82" cy="553.56" fill="rgba(0, 0, 0, 0.7)"></circle><circle r="5" cx="196.08" cy="683.9" fill="rgba(0, 0, 0, 0.7)"></circle><circle r="5" cx="349" cy="408.04" fill="rgba(0, 0, 0, 0.7)"></circle><circle r="5" cx="362.47" cy="493.58" fill="rgba(0, 0, 0, 0.7)"></circle><circle r="5" cx="352.19" cy="679.95" fill="rgba(0, 0, 0, 0.7)"></circle><circle r="5" cx="509.26" cy="340.89" fill="rgba(0, 0, 0, 0.7)"></circle><circle r="5" cx="514.83" cy="538.9" fill="rgba(0, 0, 0, 0.7)"></circle><circle r="5" cx="696.1" cy="521.83" fill="rgba(0, 0, 0, 0.7)"></circle><circle r="5" cx="665.57" cy="649.02" fill="rgba(0, 0, 0, 0.7)"></circle><circle r="5" cx="834.84" cy="248.68" fill="rgba(0, 0, 0, 0.7)"></circle><circle r="5" cx="808.33" cy="378.05" fill="rgba(0, 0, 0, 0.7)"></circle><circle r="5" cx="811.39" cy="560.49" fill="rgba(0, 0, 0, 0.7)"></circle><circle r="5" cx="848.5" cy="690.43" fill="rgba(0, 0, 0, 0.7)"></circle><circle r="5" cx="989.77" cy="-55.44" fill="rgba(0, 0, 0, 0.7)"></circle><circle r="5" cx="953.45" cy="97.61" fill="rgba(0, 0, 0, 0.7)"></circle><circle r="5" cx="953.42" cy="241.45" fill="rgba(0, 0, 0, 0.7)"></circle><circle r="5" cx="1009.9" cy="375.81" fill="rgba(0, 0, 0, 0.7)"></circle><circle r="5" cx="982.35" cy="550.14" fill="rgba(0, 0, 0, 0.7)"></circle><circle r="5" cx="991.76" cy="650.14" fill="rgba(0, 0, 0, 0.7)"></circle><circle r="5" cx="1109.34" cy="-83.69" fill="rgba(0, 0, 0, 0.7)"></circle><circle r="5" cx="1113.86" cy="352.39" fill="rgba(0, 0, 0, 0.7)"></circle><circle r="5" cx="1129.15" cy="503.73" fill="rgba(0, 0, 0, 0.7)"></circle><circle r="5" cx="1116.34" cy="639.47" fill="rgba(0, 0, 0, 0.7)"></circle><circle r="5" cx="1300.21" cy="-104.69" fill="rgba(0, 0, 0, 0.7)"></circle><circle r="5" cx="1274.74" cy="42.09" fill="rgba(0, 0, 0, 0.7)"></circle><circle r="5" cx="1256.17" cy="241.05" fill="rgba(0, 0, 0, 0.7)"></circle><circle r="5" cx="1262.35" cy="352.71" fill="rgba(0, 0, 0, 0.7)"></circle><circle r="5" cx="1254.33" cy="513.82" fill="rgba(0, 0, 0, 0.7)"></circle><circle r="5" cx="1438.67" cy="-106.99" fill="rgba(0, 0, 0, 0.7)"></circle><circle r="5" cx="1389.77" cy="110.35" fill="rgba(0, 0, 0, 0.7)"></circle><circle r="5" cx="1418.16" cy="261.33" fill="rgba(0, 0, 0, 0.7)"></circle><circle r="5" cx="1391.05" cy="401.36" fill="rgba(0, 0, 0, 0.7)"></circle><circle r="5" cx="1418.23" cy="505.21" fill="rgba(0, 0, 0, 0.7)"></circle><circle r="5" cx="1425.5" cy="650.97" fill="rgba(0, 0, 0, 0.7)"></circle><circle r="5" cx="1591.62" cy="-84.64" fill="rgba(0, 0, 0, 0.7)"></circle><circle r="5" cx="1612.17" cy="42.46" fill="rgba(0, 0, 0, 0.7)"></circle><circle r="5" cx="1540.09" cy="215.9" fill="rgba(0, 0, 0, 0.7)"></circle><circle r="5" cx="1580.2" cy="395.25" fill="rgba(0, 0, 0, 0.7)"></circle><circle r="5" cx="1544.62" cy="537.79" fill="rgba(0, 0, 0, 0.7)"></circle><circle r="5" cx="1561.14" cy="671.11" fill="rgba(0, 0, 0, 0.7)"></circle><path d="M95.4 500.05L95.4 500.05" stroke="hsla(200.60000000000002, 66.4%, 38%, 0.7)" stroke-width="1.5"></path><path d="M95.4 500.05L210.22 521.78" stroke="hsla(200.60000000000002, 66.4%, 38%, 0.7)" stroke-width="1.5"></path><path d="M95.4 500.05L108.9 649.16" stroke="hsla(200.60000000000002, 66.4%, 38%, 0.7)" stroke-width="1.5"></path><path d="M95.4 500.05L-66.51 496.57" stroke="hsla(200.60000000000002, 66.4%, 38%, 0.7)" stroke-width="1.5"></path><path d="M95.4 500.05L237.94 706.23" stroke="hsla(200.60000000000002, 66.4%, 38%, 0.7)" stroke-width="1.5"></path><path d="M513.82 534L513.82 534" stroke="hsla(200.60000000000002, 66.4%, 38%, 0.7)" stroke-width="1.5"></path><path d="M513.82 534L511.01 697.06" stroke="hsla(200.60000000000002, 66.4%, 38%, 0.7)" stroke-width="1.5"></path><path d="M513.82 534L352.33 496.05" stroke="hsla(200.60000000000002, 66.4%, 38%, 0.7)" stroke-width="1.5"></path><path d="M513.82 534L700.83 543.93" stroke="hsla(200.60000000000002, 66.4%, 38%, 0.7)" stroke-width="1.5"></path><path d="M513.82 534L387.48 682.54" stroke="hsla(200.60000000000002, 66.4%, 38%, 0.7)" stroke-width="1.5"></path><path d="M513.82 534L686.4 653.9" stroke="hsla(200.60000000000002, 66.4%, 38%, 0.7)" stroke-width="1.5"></path><path d="M513.82 534L811.59 518.91" stroke="hsla(200.60000000000002, 66.4%, 38%, 0.7)" stroke-width="1.5"></path><path d="M1259.37 104.99L1259.37 104.99" stroke="hsla(200.60000000000002, 66.4%, 38%, 0.7)" stroke-width="1.5"></path><path d="M1259.37 104.99L1158.69 76.3" stroke="hsla(200.60000000000002, 66.4%, 38%, 0.7)" stroke-width="1.5"></path><path d="M1259.37 104.99L1312.11 246.56" stroke="hsla(200.60000000000002, 66.4%, 38%, 0.7)" stroke-width="1.5"></path><path d="M1259.37 104.99L1267.34 -52.85" stroke="hsla(200.60000000000002, 66.4%, 38%, 0.7)" stroke-width="1.5"></path><path d="M1259.37 104.99L1431.91 61.77" stroke="hsla(200.60000000000002, 66.4%, 38%, 0.7)" stroke-width="1.5"></path><path d="M1305.88 396.2L1305.88 396.2" stroke="hsla(200.60000000000002, 66.4%, 38%, 0.7)" stroke-width="1.5"></path><path d="M1305.88 396.2L1407.67 352.1" stroke="hsla(200.60000000000002, 66.4%, 38%, 0.7)" stroke-width="1.5"></path><path d="M1305.88 396.2L1312.11 246.56" stroke="hsla(200.60000000000002, 66.4%, 38%, 0.7)" stroke-width="1.5"></path><path d="M1454.19 690.25L1454.19 690.25" stroke="hsla(200.60000000000002, 66.4%, 38%, 0.7)" stroke-width="1.5"></path><path d="M1454.19 690.25L1551.03 656.11" stroke="hsla(200.60000000000002, 66.4%, 38%, 0.7)" stroke-width="1.5"></path><path d="M1454.19 690.25L1311.73 679.06" stroke="hsla(200.60000000000002, 66.4%, 38%, 0.7)" stroke-width="1.5"></path><path d="M1454.19 690.25L1456.72 542.57" stroke="hsla(200.60000000000002, 66.4%, 38%, 0.7)" stroke-width="1.5"></path><path d="M1454.19 690.25L1551.41 514.99" stroke="hsla(200.60000000000002, 66.4%, 38%, 0.7)" stroke-width="1.5"></path><path d="M-66.51 496.57L-66.51 496.57" stroke="hsla(200.60000000000002, 66.4%, 38%, 0.7)" stroke-width="1.5"></path><path d="M-66.51 496.57L-54.96 709.51" stroke="hsla(200.60000000000002, 66.4%, 38%, 0.7)" stroke-width="1.5"></path><path d="M-66.51 496.57L108.9 649.16" stroke="hsla(200.60000000000002, 66.4%, 38%, 0.7)" stroke-width="1.5"></path><path d="M-54.96 709.51L-54.96 709.51" stroke="hsla(200.60000000000002, 66.4%, 38%, 0.7)" stroke-width="1.5"></path><path d="M-54.96 709.51L108.9 649.16" stroke="hsla(200.60000000000002, 66.4%, 38%, 0.7)" stroke-width="1.5"></path><path d="M108.9 649.16L108.9 649.16" stroke="hsla(200.60000000000002, 66.4%, 38%, 0.7)" stroke-width="1.5"></path><path d="M108.9 649.16L237.94 706.23" stroke="hsla(200.60000000000002, 66.4%, 38%, 0.7)" stroke-width="1.5"></path><path d="M108.9 649.16L210.22 521.78" stroke="hsla(200.60000000000002, 66.4%, 38%, 0.7)" stroke-width="1.5"></path><path d="M210.22 521.78L210.22 521.78" stroke="hsla(200.60000000000002, 66.4%, 38%, 0.7)" stroke-width="1.5"></path><path d="M210.22 521.78L352.33 496.05" stroke="hsla(200.60000000000002, 66.4%, 38%, 0.7)" stroke-width="1.5"></path><path d="M210.22 521.78L237.94 706.23" stroke="hsla(200.60000000000002, 66.4%, 38%, 0.7)" stroke-width="1.5"></path><path d="M237.94 706.23L237.94 706.23" stroke="hsla(200.60000000000002, 66.4%, 38%, 0.7)" stroke-width="1.5"></path><path d="M237.94 706.23L387.48 682.54" stroke="hsla(200.60000000000002, 66.4%, 38%, 0.7)" stroke-width="1.5"></path><path d="M237.94 706.23L352.33 496.05" stroke="hsla(200.60000000000002, 66.4%, 38%, 0.7)" stroke-width="1.5"></path><path d="M352.33 496.05L352.33 496.05" stroke="hsla(200.60000000000002, 66.4%, 38%, 0.7)" stroke-width="1.5"></path><path d="M352.33 496.05L387.48 682.54" stroke="hsla(200.60000000000002, 66.4%, 38%, 0.7)" stroke-width="1.5"></path><path d="M352.33 496.05L511.01 697.06" stroke="hsla(200.60000000000002, 66.4%, 38%, 0.7)" stroke-width="1.5"></path><path d="M387.48 682.54L387.48 682.54" stroke="hsla(200.60000000000002, 66.4%, 38%, 0.7)" stroke-width="1.5"></path><path d="M387.48 682.54L511.01 697.06" stroke="hsla(200.60000000000002, 66.4%, 38%, 0.7)" stroke-width="1.5"></path><path d="M511.01 697.06L511.01 697.06" stroke="hsla(200.60000000000002, 66.4%, 38%, 0.7)" stroke-width="1.5"></path><path d="M511.01 697.06L686.4 653.9" stroke="hsla(200.60000000000002, 66.4%, 38%, 0.7)" stroke-width="1.5"></path><path d="M511.01 697.06L700.83 543.93" stroke="hsla(200.60000000000002, 66.4%, 38%, 0.7)" stroke-width="1.5"></path><path d="M700.83 543.93L700.83 543.93" stroke="hsla(200.60000000000002, 66.4%, 38%, 0.7)" stroke-width="1.5"></path><path d="M700.83 543.93L686.4 653.9" stroke="hsla(200.60000000000002, 66.4%, 38%, 0.7)" stroke-width="1.5"></path><path d="M700.83 543.93L811.59 518.91" stroke="hsla(200.60000000000002, 66.4%, 38%, 0.7)" stroke-width="1.5"></path><path d="M686.4 653.9L686.4 653.9" stroke="hsla(200.60000000000002, 66.4%, 38%, 0.7)" stroke-width="1.5"></path><path d="M818.44 394.53L818.44 394.53" stroke="hsla(200.60000000000002, 66.4%, 38%, 0.7)" stroke-width="1.5"></path><path d="M818.44 394.53L811.59 518.91" stroke="hsla(200.60000000000002, 66.4%, 38%, 0.7)" stroke-width="1.5"></path><path d="M818.44 394.53L952 388.33" stroke="hsla(200.60000000000002, 66.4%, 38%, 0.7)" stroke-width="1.5"></path><path d="M818.44 394.53L957.88 505.78" stroke="hsla(200.60000000000002, 66.4%, 38%, 0.7)" stroke-width="1.5"></path><path d="M818.44 394.53L700.83 543.93" stroke="hsla(200.60000000000002, 66.4%, 38%, 0.7)" stroke-width="1.5"></path><path d="M811.59 518.91L811.59 518.91" stroke="hsla(200.60000000000002, 66.4%, 38%, 0.7)" stroke-width="1.5"></path><path d="M857.78 658.04L857.78 658.04" stroke="hsla(200.60000000000002, 66.4%, 38%, 0.7)" stroke-width="1.5"></path><path d="M857.78 658.04L811.59 518.91" stroke="hsla(200.60000000000002, 66.4%, 38%, 0.7)" stroke-width="1.5"></path><path d="M857.78 658.04L686.4 653.9" stroke="hsla(200.60000000000002, 66.4%, 38%, 0.7)" stroke-width="1.5"></path><path d="M857.78 658.04L957.88 505.78" stroke="hsla(200.60000000000002, 66.4%, 38%, 0.7)" stroke-width="1.5"></path><path d="M857.78 658.04L700.83 543.93" stroke="hsla(200.60000000000002, 66.4%, 38%, 0.7)" stroke-width="1.5"></path><path d="M1009.09 249.26L1009.09 249.26" stroke="hsla(200.60000000000002, 66.4%, 38%, 0.7)" stroke-width="1.5"></path><path d="M1009.09 249.26L1130.84 238.46" stroke="hsla(200.60000000000002, 66.4%, 38%, 0.7)" stroke-width="1.5"></path><path d="M952 388.33L952 388.33" stroke="hsla(200.60000000000002, 66.4%, 38%, 0.7)" stroke-width="1.5"></path><path d="M952 388.33L957.88 505.78" stroke="hsla(200.60000000000002, 66.4%, 38%, 0.7)" stroke-width="1.5"></path><path d="M957.88 505.78L957.88 505.78" stroke="hsla(200.60000000000002, 66.4%, 38%, 0.7)" stroke-width="1.5"></path><path d="M957.88 505.78L1093.86 516.04" stroke="hsla(200.60000000000002, 66.4%, 38%, 0.7)" stroke-width="1.5"></path><path d="M1158.69 76.3L1158.69 76.3" stroke="hsla(200.60000000000002, 66.4%, 38%, 0.7)" stroke-width="1.5"></path><path d="M1130.84 238.46L1130.84 238.46" stroke="hsla(200.60000000000002, 66.4%, 38%, 0.7)" stroke-width="1.5"></path><path d="M1093.86 516.04L1093.86 516.04" stroke="hsla(200.60000000000002, 66.4%, 38%, 0.7)" stroke-width="1.5"></path><path d="M1093.86 516.04L1143.23 693.69" stroke="hsla(200.60000000000002, 66.4%, 38%, 0.7)" stroke-width="1.5"></path><path d="M1093.86 516.04L1275.81 553.48" stroke="hsla(200.60000000000002, 66.4%, 38%, 0.7)" stroke-width="1.5"></path><path d="M1093.86 516.04L952 388.33" stroke="hsla(200.60000000000002, 66.4%, 38%, 0.7)" stroke-width="1.5"></path><path d="M1143.23 693.69L1143.23 693.69" stroke="hsla(200.60000000000002, 66.4%, 38%, 0.7)" stroke-width="1.5"></path><path d="M1143.23 693.69L1311.73 679.06" stroke="hsla(200.60000000000002, 66.4%, 38%, 0.7)" stroke-width="1.5"></path><path d="M1267.34 -52.85L1267.34 -52.85" stroke="hsla(200.60000000000002, 66.4%, 38%, 0.7)" stroke-width="1.5"></path><path d="M1267.34 -52.85L1404.05 -49.66" stroke="hsla(200.60000000000002, 66.4%, 38%, 0.7)" stroke-width="1.5"></path><path d="M1312.11 246.56L1312.11 246.56" stroke="hsla(200.60000000000002, 66.4%, 38%, 0.7)" stroke-width="1.5"></path><path d="M1312.11 246.56L1407.67 352.1" stroke="hsla(200.60000000000002, 66.4%, 38%, 0.7)" stroke-width="1.5"></path><path d="M1312.11 246.56L1457.15 261.81" stroke="hsla(200.60000000000002, 66.4%, 38%, 0.7)" stroke-width="1.5"></path><path d="M1275.81 553.48L1275.81 553.48" stroke="hsla(200.60000000000002, 66.4%, 38%, 0.7)" stroke-width="1.5"></path><path d="M1275.81 553.48L1311.73 679.06" stroke="hsla(200.60000000000002, 66.4%, 38%, 0.7)" stroke-width="1.5"></path><path d="M1275.81 553.48L1305.88 396.2" stroke="hsla(200.60000000000002, 66.4%, 38%, 0.7)" stroke-width="1.5"></path><path d="M1275.81 553.48L1456.72 542.57" stroke="hsla(200.60000000000002, 66.4%, 38%, 0.7)" stroke-width="1.5"></path><path d="M1311.73 679.06L1311.73 679.06" stroke="hsla(200.60000000000002, 66.4%, 38%, 0.7)" stroke-width="1.5"></path><path d="M1311.73 679.06L1456.72 542.57" stroke="hsla(200.60000000000002, 66.4%, 38%, 0.7)" stroke-width="1.5"></path><path d="M1311.73 679.06L1551.03 656.11" stroke="hsla(200.60000000000002, 66.4%, 38%, 0.7)" stroke-width="1.5"></path><path d="M1311.73 679.06L1093.86 516.04" stroke="hsla(200.60000000000002, 66.4%, 38%, 0.7)" stroke-width="1.5"></path><path d="M1404.05 -49.66L1404.05 -49.66" stroke="hsla(200.60000000000002, 66.4%, 38%, 0.7)" stroke-width="1.5"></path><path d="M1404.05 -49.66L1431.91 61.77" stroke="hsla(200.60000000000002, 66.4%, 38%, 0.7)" stroke-width="1.5"></path><path d="M1404.05 -49.66L1544.45 -45.22" stroke="hsla(200.60000000000002, 66.4%, 38%, 0.7)" stroke-width="1.5"></path><path d="M1404.05 -49.66L1259.37 104.99" stroke="hsla(200.60000000000002, 66.4%, 38%, 0.7)" stroke-width="1.5"></path><path d="M1431.91 61.77L1431.91 61.77" stroke="hsla(200.60000000000002, 66.4%, 38%, 0.7)" stroke-width="1.5"></path><path d="M1431.91 61.77L1544.45 -45.22" stroke="hsla(200.60000000000002, 66.4%, 38%, 0.7)" stroke-width="1.5"></path><path d="M1431.91 61.77L1609.89 58.12" stroke="hsla(200.60000000000002, 66.4%, 38%, 0.7)" stroke-width="1.5"></path><path d="M1431.91 61.77L1267.34 -52.85" stroke="hsla(200.60000000000002, 66.4%, 38%, 0.7)" stroke-width="1.5"></path><path d="M1457.15 261.81L1457.15 261.81" stroke="hsla(200.60000000000002, 66.4%, 38%, 0.7)" stroke-width="1.5"></path><path d="M1457.15 261.81L1407.67 352.1" stroke="hsla(200.60000000000002, 66.4%, 38%, 0.7)" stroke-width="1.5"></path><path d="M1457.15 261.81L1552.81 386.99" stroke="hsla(200.60000000000002, 66.4%, 38%, 0.7)" stroke-width="1.5"></path><path d="M1457.15 261.81L1603.99 193.92" stroke="hsla(200.60000000000002, 66.4%, 38%, 0.7)" stroke-width="1.5"></path><path d="M1407.67 352.1L1407.67 352.1" stroke="hsla(200.60000000000002, 66.4%, 38%, 0.7)" stroke-width="1.5"></path><path d="M1407.67 352.1L1552.81 386.99" stroke="hsla(200.60000000000002, 66.4%, 38%, 0.7)" stroke-width="1.5"></path><path d="M1407.67 352.1L1456.72 542.57" stroke="hsla(200.60000000000002, 66.4%, 38%, 0.7)" stroke-width="1.5"></path><path d="M1456.72 542.57L1456.72 542.57" stroke="hsla(200.60000000000002, 66.4%, 38%, 0.7)" stroke-width="1.5"></path><path d="M1456.72 542.57L1551.41 514.99" stroke="hsla(200.60000000000002, 66.4%, 38%, 0.7)" stroke-width="1.5"></path><path d="M1456.72 542.57L1551.03 656.11" stroke="hsla(200.60000000000002, 66.4%, 38%, 0.7)" stroke-width="1.5"></path><path d="M1544.45 -45.22L1544.45 -45.22" stroke="hsla(200.60000000000002, 66.4%, 38%, 0.7)" stroke-width="1.5"></path><path d="M1544.45 -45.22L1609.89 58.12" stroke="hsla(200.60000000000002, 66.4%, 38%, 0.7)" stroke-width="1.5"></path><path d="M1609.89 58.12L1609.89 58.12" stroke="hsla(200.60000000000002, 66.4%, 38%, 0.7)" stroke-width="1.5"></path><path d="M1609.89 58.12L1603.99 193.92" stroke="hsla(200.60000000000002, 66.4%, 38%, 0.7)" stroke-width="1.5"></path><path d="M1603.99 193.92L1603.99 193.92" stroke="hsla(200.60000000000002, 66.4%, 38%, 0.7)" stroke-width="1.5"></path><path d="M1603.99 193.92L1552.81 386.99" stroke="hsla(200.60000000000002, 66.4%, 38%, 0.7)" stroke-width="1.5"></path><path d="M1552.81 386.99L1552.81 386.99" stroke="hsla(200.60000000000002, 66.4%, 38%, 0.7)" stroke-width="1.5"></path><path d="M1552.81 386.99L1551.41 514.99" stroke="hsla(200.60000000000002, 66.4%, 38%, 0.7)" stroke-width="1.5"></path><path d="M1552.81 386.99L1456.72 542.57" stroke="hsla(200.60000000000002, 66.4%, 38%, 0.7)" stroke-width="1.5"></path><path d="M1551.41 514.99L1551.41 514.99" stroke="hsla(200.60000000000002, 66.4%, 38%, 0.7)" stroke-width="1.5"></path><path d="M1551.41 514.99L1551.03 656.11" stroke="hsla(200.60000000000002, 66.4%, 38%, 0.7)" stroke-width="1.5"></path><path d="M1551.41 514.99L1407.67 352.1" stroke="hsla(200.60000000000002, 66.4%, 38%, 0.7)" stroke-width="1.5"></path><path d="M1551.03 656.11L1551.03 656.11" stroke="hsla(200.60000000000002, 66.4%, 38%, 0.7)" stroke-width="1.5"></path><path d="M1551.03 656.11L1552.81 386.99" stroke="hsla(200.60000000000002, 66.4%, 38%, 0.7)" stroke-width="1.5"></path><path d="M1551.03 656.11L1275.81 553.48" stroke="hsla(200.60000000000002, 66.4%, 38%, 0.7)" stroke-width="1.5"></path><circle r="25" cx="95.4" cy="500.05" fill="url(#SvgjsRadialGradient1013)"></circle><circle r="25" cx="513.82" cy="534" fill="url(#SvgjsRadialGradient1013)"></circle><circle r="25" cx="1259.37" cy="104.99" fill="url(#SvgjsRadialGradient1013)"></circle><circle r="25" cx="1305.88" cy="396.2" fill="url(#SvgjsRadialGradient1013)"></circle><circle r="25" cx="1454.19" cy="690.25" fill="url(#SvgjsRadialGradient1013)"></circle><circle r="5" cx="-66.51" cy="496.57" fill="rgba(175, 197, 209, 0.85)"></circle><circle r="5" cx="-54.96" cy="709.51" fill="rgba(175, 197, 209, 0.85)"></circle><circle r="5" cx="108.9" cy="649.16" fill="rgba(175, 197, 209, 0.85)"></circle><circle r="5" cx="210.22" cy="521.78" fill="rgba(175, 197, 209, 0.85)"></circle><circle r="5" cx="237.94" cy="706.23" fill="rgba(175, 197, 209, 0.85)"></circle><circle r="5" cx="352.33" cy="496.05" fill="rgba(175, 197, 209, 0.85)"></circle><circle r="5" cx="387.48" cy="682.54" fill="rgba(175, 197, 209, 0.85)"></circle><circle r="5" cx="511.01" cy="697.06" fill="rgba(175, 197, 209, 0.85)"></circle><circle r="5" cx="700.83" cy="543.93" fill="rgba(175, 197, 209, 0.85)"></circle><circle r="5" cx="686.4" cy="653.9" fill="rgba(175, 197, 209, 0.85)"></circle><circle r="5" cx="818.44" cy="394.53" fill="rgba(175, 197, 209, 0.85)"></circle><circle r="5" cx="811.59" cy="518.91" fill="rgba(175, 197, 209, 0.85)"></circle><circle r="5" cx="857.78" cy="658.04" fill="rgba(175, 197, 209, 0.85)"></circle><circle r="5" cx="1009.09" cy="249.26" fill="rgba(175, 197, 209, 0.85)"></circle><circle r="5" cx="952" cy="388.33" fill="rgba(175, 197, 209, 0.85)"></circle><circle r="5" cx="957.88" cy="505.78" fill="rgba(175, 197, 209, 0.85)"></circle><circle r="5" cx="1158.69" cy="76.3" fill="rgba(175, 197, 209, 0.85)"></circle><circle r="5" cx="1130.84" cy="238.46" fill="rgba(175, 197, 209, 0.85)"></circle><circle r="5" cx="1093.86" cy="516.04" fill="rgba(175, 197, 209, 0.85)"></circle><circle r="5" cx="1143.23" cy="693.69" fill="rgba(175, 197, 209, 0.85)"></circle><circle r="5" cx="1267.34" cy="-52.85" fill="rgba(175, 197, 209, 0.85)"></circle><circle r="5" cx="1312.11" cy="246.56" fill="rgba(175, 197, 209, 0.85)"></circle><circle r="5" cx="1275.81" cy="553.48" fill="rgba(175, 197, 209, 0.85)"></circle><circle r="5" cx="1311.73" cy="679.06" fill="rgba(175, 197, 209, 0.85)"></circle><circle r="5" cx="1404.05" cy="-49.66" fill="rgba(175, 197, 209, 0.85)"></circle><circle r="5" cx="1431.91" cy="61.77" fill="rgba(175, 197, 209, 0.85)"></circle><circle r="5" cx="1457.15" cy="261.81" fill="rgba(175, 197, 209, 0.85)"></circle><circle r="5" cx="1407.67" cy="352.1" fill="rgba(175, 197, 209, 0.85)"></circle><circle r="5" cx="1456.72" cy="542.57" fill="rgba(175, 197, 209, 0.85)"></circle><circle r="5" cx="1544.45" cy="-45.22" fill="rgba(175, 197, 209, 0.85)"></circle><circle r="5" cx="1609.89" cy="58.12" fill="rgba(175, 197, 209, 0.85)"></circle><circle r="5" cx="1603.99" cy="193.92" fill="rgba(175, 197, 209, 0.85)"></circle><circle r="5" cx="1552.81" cy="386.99" fill="rgba(175, 197, 209, 0.85)"></circle><circle r="5" cx="1551.41" cy="514.99" fill="rgba(175, 197, 209, 0.85)"></circle><circle r="5" cx="1551.03" cy="656.11" fill="rgba(175, 197, 209, 0.85)"></circle></g><defs><mask id="SvgjsMask1012"><rect width="1440" height="560" fill="#ffffff"></rect></mask><radialGradient id="SvgjsRadialGradient1013"><stop stop-color="#ffffff" offset="0.1"></stop><stop stop-color="rgba(25, 90, 124, 0.7)" offset="0.2"></stop><stop stop-color="rgba(25, 90, 124, 0)" offset="1"></stop></radialGradient></defs></svg>