<svg xmlns="http://www.w3.org/2000/svg" version="1.1" xmlns:xlink="http://www.w3.org/1999/xlink" xmlns:svgjs="http://svgjs.com/svgjs" width="1440" height="560" preserveAspectRatio="none" viewBox="0 0 1440 560"><g mask="url(&quot;#SvgjsMask1159&quot;)" fill="none"><rect width="1440" height="560" x="0" y="0" fill="rgba(239, 169, 0, 1)"></rect><path d="M 0,197 C 144,158.6 432,1.4 720,5 C 1008,8.6 1296,173 1440,215L1440 560L0 560z" fill="rgba(239, 169, 0, 1)"></path><path d="M 0,373 C 48,384.2 144,436.2 240,429 C 336,421.8 384,334.2 480,337 C 576,339.8 624,451.2 720,443 C 816,434.8 864,294 960,296 C 1056,298 1104,430.2 1200,453 C 1296,475.8 1392,418.6 1440,410L1440 560L0 560z" fill="rgba(255, 255, 255, 1)"></path></g><defs><mask id="SvgjsMask1159"><rect width="1440" height="560" fill="#ffffff"></rect></mask></defs></svg>