<svg xmlns="http://www.w3.org/2000/svg" version="1.1" xmlns:xlink="http://www.w3.org/1999/xlink" xmlns:svgjs="http://svgjs.com/svgjs" width="1440" height="560" preserveAspectRatio="none" viewBox="0 0 1440 560"><g mask="url(&quot;#SvgjsMask1192&quot;)" fill="none"><rect width="1440" height="560" x="0" y="0" fill="rgba(239, 169, 0, 1)"></rect><path d="M 0,265 C 48,221.2 144,53.8 240,46 C 336,38.2 384,209.4 480,226 C 576,242.6 624,129 720,129 C 816,129 864,241.2 960,226 C 1056,210.8 1104,54.6 1200,53 C 1296,51.4 1392,185 1440,218L1440 560L0 560z" fill="rgba(255, 255, 255, 1)"></path><path d="M 0,407 C 28.8,425 86.4,499.2 144,497 C 201.6,494.8 230.4,396.2 288,396 C 345.6,395.8 374.4,493.6 432,496 C 489.6,498.4 518.4,409.2 576,408 C 633.6,406.8 662.4,495 720,490 C 777.6,485 806.4,370 864,383 C 921.6,396 950.4,563 1008,555 C 1065.6,547 1094.4,346.6 1152,343 C 1209.6,339.4 1238.4,523.4 1296,537 C 1353.6,550.6 1411.2,436.2 1440,411L1440 560L0 560z" fill="rgba(255, 255, 255, 1)"></path></g><defs><mask id="SvgjsMask1192"><rect width="1440" height="560" fill="#ffffff"></rect></mask></defs></svg>